{"glyphs":{"0":{"ha":935,"x_min":0,"x_max":0,"o":"m 467 971 b 851 486 714 971 851 797 b 467 0 851 174 714 0 b 83 486 221 0 83 174 b 467 971 83 797 221 971 m 467 943 b 111 486 238 943 111 781 b 467 28 111 192 238 28 b 824 486 696 28 824 192 b 467 943 824 781 696 943 "},"1":{"ha":479,"x_min":0,"x_max":0,"o":"m 239 0 l 239 943 l 31 943 l 31 971 l 267 971 l 267 0 "},"2":{"ha":792,"x_min":0,"x_max":0,"o":"m 358 971 b 632 744 528 971 632 885 b 465 436 632 661 569 544 l 99 28 l 704 28 l 704 0 l 71 0 l 71 39 l 446 456 b 604 744 544 558 604 668 b 358 943 604 868 511 943 b 92 825 264 943 163 899 l 72 844 b 358 971 149 924 257 971 "},"3":{"ha":706,"x_min":0,"x_max":0,"o":"m 289 547 b 614 293 485 547 614 454 b 292 0 614 119 490 0 b 18 82 193 0 92 33 l 35 104 b 292 28 103 58 199 28 b 586 288 476 28 586 136 b 289 519 586 440 474 519 l 192 519 l 192 544 l 531 943 l 57 943 l 57 971 l 568 971 l 568 946 l 231 547 "},"4":{"ha":754,"x_min":0,"x_max":0,"o":"m 517 317 l 517 626 l 544 626 l 544 317 l 700 317 l 700 289 l 544 289 l 544 0 l 517 0 l 517 289 l 47 289 l 47 324 l 419 971 l 451 971 l 75 317 "},"5":{"ha":760,"x_min":0,"x_max":0,"o":"m 151 943 l 151 540 b 364 579 219 564 303 579 b 676 311 554 579 676 474 b 361 3 676 124 553 3 b 63 97 265 3 149 40 l 76 119 b 361 31 160 65 272 31 b 649 311 536 31 649 140 b 364 551 649 457 536 551 b 124 501 293 551 199 532 l 124 971 l 642 971 l 642 943 "},"6":{"ha":815,"x_min":0,"x_max":0,"o":"m 453 971 b 704 910 532 971 625 947 l 690 885 b 456 943 621 921 532 943 b 117 346 214 943 85 717 b 444 608 147 508 268 608 b 746 308 631 608 746 496 b 439 0 746 117 625 0 b 83 460 217 0 83 160 b 453 971 83 767 224 971 m 444 581 b 140 300 254 581 140 444 b 432 28 140 190 226 28 b 718 311 600 28 718 136 b 444 581 718 478 610 581 "},"7":{"ha":735,"x_min":0,"x_max":0,"o":"m 253 0 l 222 0 l 657 943 l 88 943 l 88 788 l 60 788 l 60 971 l 683 971 l 683 936 "},"8":{"ha":835,"x_min":0,"x_max":0,"o":"m 418 971 b 707 740 597 971 707 886 b 528 519 707 626 640 554 b 751 269 667 486 751 401 b 418 0 751 99 625 0 b 83 269 210 0 83 99 b 307 519 83 401 168 486 b 128 740 194 554 128 626 b 418 971 128 886 239 971 m 418 943 b 156 738 256 943 156 865 b 418 529 156 608 256 529 b 679 738 581 529 679 608 b 418 943 679 865 581 943 m 417 501 b 111 272 228 501 111 414 b 418 28 111 119 226 28 b 724 271 607 28 724 118 b 417 501 724 413 608 501 "},"9":{"ha":815,"x_min":0,"x_max":0,"o":"m 376 0 b 125 61 297 0 204 24 l 139 86 b 374 28 208 50 297 28 b 713 625 615 28 744 254 b 385 363 682 463 561 363 b 83 663 199 363 83 475 b 390 971 83 854 204 971 b 746 511 613 971 746 811 b 376 0 746 204 606 0 m 385 390 b 689 671 575 390 689 526 b 397 943 689 781 603 943 b 111 660 229 943 111 835 b 385 390 111 493 219 390 "},"A":{"ha":953,"x_min":0,"x_max":0,"o":"m 182 296 l 47 0 l 14 0 l 458 971 l 489 971 l 939 0 l 907 0 l 771 296 m 474 939 l 194 324 l 758 324 "},"Á":{"ha":953,"x_min":0,"x_max":0,"o":"m 432 1119 l 629 1279 l 656 1265 l 476 1119 m 182 296 l 47 0 l 14 0 l 458 971 l 489 971 l 939 0 l 907 0 l 771 296 m 474 939 l 194 324 l 758 324 "},"Ă":{"ha":953,"x_min":0,"x_max":0,"o":"m 476 1115 b 331 1261 397 1115 333 1178 l 358 1261 b 476 1143 361 1194 411 1143 b 594 1261 542 1143 592 1194 l 622 1261 b 476 1115 619 1178 556 1115 m 182 296 l 47 0 l 14 0 l 458 971 l 489 971 l 939 0 l 907 0 l 771 296 m 474 939 l 194 324 l 758 324 "},"Â":{"ha":953,"x_min":0,"x_max":0,"o":"m 318 1119 l 456 1272 l 497 1272 l 635 1119 l 597 1119 l 476 1253 l 356 1119 m 182 296 l 47 0 l 14 0 l 458 971 l 489 971 l 939 0 l 907 0 l 771 296 m 474 939 l 194 324 l 758 324 "},"Ä":{"ha":953,"x_min":0,"x_max":0,"o":"m 372 1142 b 336 1178 353 1142 336 1158 b 372 1214 336 1197 353 1214 b 408 1178 392 1214 408 1197 b 372 1142 408 1158 392 1142 m 581 1142 b 544 1178 561 1142 544 1158 b 581 1214 544 1197 561 1214 b 617 1178 600 1214 617 1197 b 581 1142 617 1158 600 1142 m 182 296 l 47 0 l 14 0 l 458 971 l 489 971 l 939 0 l 907 0 l 771 296 m 474 939 l 194 324 l 758 324 "},"À":{"ha":953,"x_min":0,"x_max":0,"o":"m 297 1265 l 324 1279 l 521 1119 l 476 1119 m 182 296 l 47 0 l 14 0 l 458 971 l 489 971 l 939 0 l 907 0 l 771 296 m 474 939 l 194 324 l 758 324 "},"Ā":{"ha":953,"x_min":0,"x_max":0,"o":"m 326 1165 l 326 1193 l 628 1193 l 628 1165 m 182 296 l 47 0 l 14 0 l 458 971 l 489 971 l 939 0 l 907 0 l 771 296 m 474 939 l 194 324 l 758 324 "},"Ą":{"ha":953,"x_min":0,"x_max":0,"o":"m 938 0 b 854 -182 867 -96 854 -142 b 915 -249 854 -225 881 -249 b 999 -201 946 -249 974 -229 l 1018 -221 b 915 -276 992 -251 953 -276 b 826 -182 865 -276 826 -239 b 908 0 826 -137 850 -86 l 907 0 l 771 296 l 182 296 l 47 0 l 14 0 l 458 971 l 489 971 l 939 0 m 757 324 l 474 939 l 194 324 "},"Å":{"ha":953,"x_min":0,"x_max":0,"o":"m 182 296 l 47 0 l 14 0 l 447 946 b 321 1093 376 960 321 1022 b 476 1244 321 1174 392 1244 b 633 1093 561 1244 633 1174 b 501 944 633 1021 575 957 l 939 0 l 907 0 l 771 296 m 349 1093 b 476 971 349 1026 407 971 b 606 1093 546 971 606 1026 b 476 1217 606 1160 546 1217 b 349 1093 407 1217 349 1160 m 474 939 l 194 324 l 758 324 "},"Ã":{"ha":953,"x_min":0,"x_max":0,"o":"m 390 1225 b 321 1142 346 1225 321 1194 l 293 1142 b 390 1253 293 1211 329 1253 b 564 1156 458 1253 504 1156 b 633 1239 608 1156 633 1186 l 661 1239 b 564 1128 661 1169 625 1128 b 390 1225 485 1128 451 1225 m 182 296 l 47 0 l 14 0 l 458 971 l 489 971 l 939 0 l 907 0 l 771 296 m 474 939 l 194 324 l 758 324 "},"Æ":{"ha":1371,"x_min":0,"x_max":0,"o":"m 1281 0 l 654 0 l 654 310 l 233 310 l 47 0 l 14 0 l 599 971 l 1261 971 l 1261 943 l 682 943 l 682 514 l 1197 514 l 1197 486 l 682 486 l 682 28 l 1281 28 m 654 943 l 614 943 l 250 338 l 654 338 "},"B":{"ha":1015,"x_min":0,"x_max":0,"o":"m 568 971 b 864 731 756 971 864 883 b 672 506 864 608 794 526 b 915 260 826 488 915 397 b 568 0 915 94 789 0 l 178 0 l 178 971 m 206 517 l 568 517 b 836 731 739 517 836 594 b 568 943 836 865 739 943 l 206 943 m 206 28 l 568 28 b 889 261 772 28 889 113 b 568 490 889 407 772 490 l 206 490 "},"C":{"ha":979,"x_min":0,"x_max":0,"o":"m 568 971 b 901 846 696 971 813 924 l 883 828 b 568 944 800 901 689 944 b 96 486 308 944 96 739 b 568 26 96 233 308 26 b 883 144 689 26 800 71 l 903 126 b 568 0 814 49 696 0 b 69 486 294 0 69 219 b 568 971 69 753 294 971 "},"Ć":{"ha":979,"x_min":0,"x_max":0,"o":"m 490 1119 l 446 1119 l 643 1279 l 669 1265 m 568 971 b 901 846 696 971 813 924 l 883 828 b 568 944 800 901 689 944 b 96 486 308 944 96 739 b 568 26 96 233 308 26 b 883 144 689 26 800 71 l 903 126 b 568 0 814 49 696 0 b 69 486 294 0 69 219 b 568 971 69 753 294 971 "},"Č":{"ha":979,"x_min":0,"x_max":0,"o":"m 369 1272 l 490 1139 l 611 1272 l 649 1272 l 511 1119 l 469 1119 l 332 1272 m 568 971 b 901 846 696 971 813 924 l 883 828 b 568 944 800 901 689 944 b 96 486 308 944 96 739 b 568 26 96 233 308 26 b 883 144 689 26 800 71 l 903 126 b 568 0 814 49 696 0 b 69 486 294 0 69 219 b 568 971 69 753 294 971 "},"Ç":{"ha":979,"x_min":0,"x_max":0,"o":"m 556 -68 b 658 -164 613 -68 657 -108 b 542 -278 661 -229 613 -278 b 444 -250 508 -278 467 -267 l 456 -224 b 542 -250 476 -239 513 -250 b 631 -164 596 -250 633 -214 b 557 -93 629 -124 599 -93 l 517 -93 l 556 0 b 69 486 288 7 69 224 b 568 971 69 753 294 971 b 901 846 696 971 813 924 l 883 828 b 568 944 800 901 689 944 b 96 486 308 944 96 739 b 568 26 96 233 308 26 b 883 144 689 26 800 71 l 903 126 b 583 0 818 51 706 4 "},"D":{"ha":1126,"x_min":0,"x_max":0,"o":"m 560 971 b 1057 485 833 971 1057 753 b 560 0 1057 218 833 0 l 178 0 l 178 971 m 206 28 l 560 28 b 1029 485 818 28 1029 233 b 560 943 1029 738 818 943 l 206 943 "},"Ð":{"ha":1126,"x_min":0,"x_max":0,"o":"m 560 971 b 1057 485 833 971 1057 753 b 560 0 1057 218 833 0 l 178 0 l 178 475 l 0 475 l 0 503 l 178 503 l 178 971 m 560 28 b 1029 485 818 28 1029 233 b 560 943 1029 738 818 943 l 206 943 l 206 503 l 569 503 l 569 475 l 206 475 l 206 28 "},"Ď":{"ha":1126,"x_min":0,"x_max":0,"o":"m 415 1272 l 536 1139 l 657 1272 l 694 1272 l 557 1119 l 515 1119 l 378 1272 m 560 971 b 1057 485 833 971 1057 753 b 560 0 1057 218 833 0 l 178 0 l 178 971 m 206 28 l 560 28 b 1029 485 818 28 1029 233 b 560 943 1029 738 818 943 l 206 943 "},"Đ":{"ha":1126,"x_min":0,"x_max":0,"o":"m 386 1165 l 386 1193 l 688 1193 l 688 1165 m 560 971 b 1057 485 833 971 1057 753 b 560 0 1057 218 833 0 l 178 0 l 178 971 m 206 28 l 560 28 b 1029 485 818 28 1029 233 b 560 943 1029 738 818 943 l 206 943 "},"E":{"ha":894,"x_min":0,"x_max":0,"o":"m 206 943 l 206 514 l 721 514 l 721 486 l 206 486 l 206 28 l 804 28 l 804 0 l 178 0 l 178 971 l 785 971 l 785 943 "},"É":{"ha":894,"x_min":0,"x_max":0,"o":"m 488 1119 l 443 1119 l 640 1279 l 667 1265 m 206 943 l 206 514 l 721 514 l 721 486 l 206 486 l 206 28 l 804 28 l 804 0 l 178 0 l 178 971 l 785 971 l 785 943 "},"Ě":{"ha":894,"x_min":0,"x_max":0,"o":"m 367 1272 l 488 1139 l 608 1272 l 646 1272 l 508 1119 l 467 1119 l 329 1272 m 206 943 l 206 514 l 721 514 l 721 486 l 206 486 l 206 28 l 804 28 l 804 0 l 178 0 l 178 971 l 785 971 l 785 943 "},"Ê":{"ha":894,"x_min":0,"x_max":0,"o":"m 608 1119 l 488 1253 l 367 1119 l 329 1119 l 467 1272 l 508 1272 l 646 1119 m 206 943 l 206 514 l 721 514 l 721 486 l 206 486 l 206 28 l 804 28 l 804 0 l 178 0 l 178 971 l 785 971 l 785 943 "},"Ë":{"ha":894,"x_min":0,"x_max":0,"o":"m 383 1214 b 419 1178 403 1214 419 1197 b 383 1142 419 1158 403 1142 b 347 1178 364 1142 347 1158 b 383 1214 347 1197 364 1214 m 592 1214 b 628 1178 611 1214 628 1197 b 592 1142 628 1158 611 1142 b 556 1178 572 1142 556 1158 b 592 1214 556 1197 572 1214 m 206 943 l 206 514 l 721 514 l 721 486 l 206 486 l 206 28 l 804 28 l 804 0 l 178 0 l 178 971 l 785 971 l 785 943 "},"Ė":{"ha":894,"x_min":0,"x_max":0,"o":"m 488 1214 b 524 1178 507 1214 524 1197 b 488 1142 524 1158 507 1142 b 451 1178 468 1142 451 1158 b 488 1214 451 1197 468 1214 m 206 943 l 206 514 l 721 514 l 721 486 l 206 486 l 206 28 l 804 28 l 804 0 l 178 0 l 178 971 l 785 971 l 785 943 "},"È":{"ha":894,"x_min":0,"x_max":0,"o":"m 488 1119 l 308 1265 l 335 1279 l 532 1119 m 206 943 l 206 514 l 721 514 l 721 486 l 206 486 l 206 28 l 804 28 l 804 0 l 178 0 l 178 971 l 785 971 l 785 943 "},"Ē":{"ha":894,"x_min":0,"x_max":0,"o":"m 338 1165 l 338 1193 l 639 1193 l 639 1165 m 206 943 l 206 514 l 721 514 l 721 486 l 206 486 l 206 28 l 804 28 l 804 0 l 178 0 l 178 971 l 785 971 l 785 943 "},"Ę":{"ha":894,"x_min":0,"x_max":0,"o":"m 206 943 l 206 514 l 721 514 l 721 486 l 206 486 l 206 28 l 804 28 l 804 0 l 725 0 b 642 -182 658 -92 642 -139 b 703 -249 642 -225 668 -249 b 786 -201 733 -249 761 -229 l 806 -221 b 703 -276 779 -251 740 -276 b 614 -182 653 -276 614 -239 b 697 0 614 -137 636 -86 l 178 0 l 178 971 l 785 971 l 785 943 "},"F":{"ha":757,"x_min":0,"x_max":0,"o":"m 206 943 l 206 476 l 679 476 l 679 449 l 206 449 l 206 0 l 178 0 l 178 971 l 743 971 l 743 943 "},"G":{"ha":1056,"x_min":0,"x_max":0,"o":"m 903 126 b 568 0 814 49 696 0 b 69 486 294 0 69 219 b 568 971 69 753 294 971 b 901 846 696 971 813 924 l 883 828 b 568 944 800 901 689 944 b 96 486 308 944 96 739 b 568 26 96 233 308 26 b 875 138 685 26 793 68 l 875 476 l 903 476 "},"Ğ":{"ha":1056,"x_min":0,"x_max":0,"o":"m 528 1115 b 382 1261 449 1115 385 1178 l 410 1261 b 528 1143 413 1194 463 1143 b 646 1261 593 1143 643 1194 l 674 1261 b 528 1115 671 1178 607 1115 m 903 126 b 568 0 814 49 696 0 b 69 486 294 0 69 219 b 568 971 69 753 294 971 b 901 846 696 971 813 924 l 883 828 b 568 944 800 901 689 944 b 96 486 308 944 96 739 b 568 26 96 233 308 26 b 875 138 685 26 793 68 l 875 476 l 903 476 "},"Ģ":{"ha":1056,"x_min":0,"x_max":0,"o":"m 903 126 b 568 0 814 49 696 0 b 69 486 294 0 69 219 b 568 971 69 753 294 971 b 901 846 696 971 813 924 l 883 828 b 568 944 800 901 689 944 b 96 486 308 944 96 739 b 568 26 96 233 308 26 b 875 138 685 26 793 68 l 875 476 l 903 476 m 535 -90 b 571 -128 554 -90 571 -107 b 557 -162 571 -140 565 -150 l 514 -228 l 486 -228 l 524 -162 b 499 -126 508 -157 499 -143 b 535 -90 499 -106 515 -90 "},"H":{"ha":1110,"x_min":0,"x_max":0,"o":"m 904 0 l 904 476 l 206 476 l 206 0 l 178 0 l 178 971 l 206 971 l 206 504 l 904 504 l 904 971 l 932 971 l 932 0 "},"I":{"ha":383,"x_min":0,"x_max":0,"o":"m 178 0 l 178 971 l 206 971 l 206 0 "},"Ĳ":{"ha":1021,"x_min":0,"x_max":0,"o":"m 178 0 l 178 971 l 206 971 l 206 0 m 868 274 b 629 0 868 97 783 0 b 388 136 535 0 449 49 l 407 156 b 629 28 464 72 542 28 b 840 274 765 28 840 114 l 840 943 l 476 943 l 476 971 l 868 971 "},"Í":{"ha":383,"x_min":0,"x_max":0,"o":"m 192 1119 l 147 1119 l 344 1279 l 371 1265 m 178 0 l 178 971 l 206 971 l 206 0 "},"Î":{"ha":383,"x_min":0,"x_max":0,"o":"m 313 1119 l 192 1253 l 71 1119 l 33 1119 l 171 1272 l 213 1272 l 350 1119 m 178 0 l 178 971 l 206 971 l 206 0 "},"Ï":{"ha":383,"x_min":0,"x_max":0,"o":"m 88 1214 b 124 1178 107 1214 124 1197 b 88 1142 124 1158 107 1142 b 51 1178 68 1142 51 1158 b 88 1214 51 1197 68 1214 m 296 1214 b 332 1178 315 1214 332 1197 b 296 1142 332 1158 315 1142 b 260 1178 276 1142 260 1158 b 296 1214 260 1197 276 1214 m 178 0 l 178 971 l 206 971 l 206 0 "},"İ":{"ha":383,"x_min":0,"x_max":0,"o":"m 192 1214 b 228 1178 211 1214 228 1197 b 192 1142 228 1158 211 1142 b 156 1178 172 1142 156 1158 b 192 1214 156 1197 172 1214 m 178 0 l 178 971 l 206 971 l 206 0 "},"Ì":{"ha":383,"x_min":0,"x_max":0,"o":"m 192 1119 l 13 1265 l 39 1279 l 236 1119 m 178 0 l 178 971 l 206 971 l 206 0 "},"Ī":{"ha":383,"x_min":0,"x_max":0,"o":"m 40 1165 l 40 1193 l 342 1193 l 342 1165 m 178 0 l 178 971 l 206 971 l 206 0 "},"Į":{"ha":383,"x_min":0,"x_max":0,"o":"m 286 -221 b 183 -276 260 -251 221 -276 b 94 -182 133 -276 94 -239 b 179 6 94 -137 118 -81 l 178 6 l 178 971 l 206 971 l 206 0 l 204 0 b 122 -182 138 -92 122 -139 b 183 -249 122 -225 149 -249 b 267 -201 214 -249 242 -229 "},"Ĩ":{"ha":383,"x_min":0,"x_max":0,"o":"m 104 1253 b 278 1156 172 1253 218 1156 b 347 1239 322 1156 347 1186 l 375 1239 b 278 1128 375 1169 339 1128 b 104 1225 199 1128 165 1225 b 35 1142 60 1225 35 1194 l 7 1142 b 104 1253 7 1211 43 1253 m 178 0 l 178 971 l 206 971 l 206 0 "},"J":{"ha":638,"x_min":0,"x_max":0,"o":"m 485 274 b 246 0 485 97 400 0 b 4 136 151 0 65 49 l 24 156 b 246 28 81 72 158 28 b 457 274 382 28 457 114 l 457 943 l 93 943 l 93 971 l 485 971 "},"Ĵ":{"ha":638,"x_min":0,"x_max":0,"o":"m 404 1119 l 283 1253 l 163 1119 l 125 1119 l 263 1272 l 304 1272 l 442 1119 m 485 274 b 246 0 485 97 400 0 b 4 136 151 0 65 49 l 24 156 b 246 28 81 72 158 28 b 457 274 382 28 457 114 l 457 943 l 93 943 l 93 971 l 485 971 "},"K":{"ha":931,"x_min":0,"x_max":0,"o":"m 435 514 l 206 265 l 206 0 l 178 0 l 178 971 l 206 971 l 206 306 l 819 971 l 858 971 l 454 535 l 889 0 l 851 0 "},"Ķ":{"ha":931,"x_min":0,"x_max":0,"o":"m 851 0 l 435 514 l 206 265 l 206 0 l 178 0 l 178 971 l 206 971 l 206 306 l 819 971 l 858 971 l 454 535 l 889 0 m 472 -90 b 508 -128 492 -90 508 -107 b 494 -162 508 -140 503 -150 l 451 -228 l 424 -228 l 461 -162 b 436 -126 446 -157 436 -143 b 472 -90 436 -106 453 -90 "},"L":{"ha":682,"x_min":0,"x_max":0,"o":"m 640 28 l 640 0 l 178 0 l 178 971 l 206 971 l 206 28 "},"Ĺ":{"ha":682,"x_min":0,"x_max":0,"o":"m 206 1119 l 161 1119 l 358 1279 l 385 1265 m 640 28 l 640 0 l 178 0 l 178 971 l 206 971 l 206 28 "},"Ľ":{"ha":682,"x_min":0,"x_max":0,"o":"m 640 0 l 178 0 l 178 971 l 206 971 l 206 28 l 640 28 m 567 854 b 542 890 551 860 542 874 b 578 926 542 911 558 926 b 614 889 597 926 614 910 b 600 854 614 876 608 867 l 557 789 l 529 789 "},"Ļ":{"ha":682,"x_min":0,"x_max":0,"o":"m 640 0 l 178 0 l 178 971 l 206 971 l 206 28 l 640 28 m 407 -90 b 443 -128 426 -90 443 -107 b 429 -162 443 -140 438 -150 l 386 -228 l 358 -228 l 396 -162 b 371 -126 381 -157 371 -143 b 407 -90 371 -106 388 -90 "},"Ŀ":{"ha":682,"x_min":0,"x_max":0,"o":"m 640 28 l 640 0 l 178 0 l 178 971 l 206 971 l 206 28 m 513 614 b 549 578 532 614 549 597 b 513 542 549 558 532 542 b 476 578 493 542 476 558 b 513 614 476 597 493 614 "},"Ł":{"ha":699,"x_min":0,"x_max":0,"o":"m 657 0 l 194 0 l 194 607 l 57 568 l 50 594 l 194 636 l 194 971 l 222 971 l 222 644 l 478 718 l 485 690 l 222 615 l 222 28 l 657 28 "},"M":{"ha":1269,"x_min":0,"x_max":0,"o":"m 1064 0 l 1063 944 l 636 107 l 633 107 l 206 944 l 206 0 l 178 0 l 178 971 l 226 971 l 636 167 l 1043 971 l 1092 971 l 1092 0 "},"N":{"ha":1110,"x_min":0,"x_max":0,"o":"m 890 0 l 206 943 l 206 0 l 178 0 l 178 971 l 219 971 l 904 28 l 904 971 l 932 971 l 932 0 "},"Ń":{"ha":1110,"x_min":0,"x_max":0,"o":"m 556 1119 l 511 1119 l 708 1279 l 735 1265 m 890 0 l 206 943 l 206 0 l 178 0 l 178 971 l 219 971 l 904 28 l 904 971 l 932 971 l 932 0 "},"Ň":{"ha":1110,"x_min":0,"x_max":0,"o":"m 435 1272 l 556 1139 l 676 1272 l 714 1272 l 576 1119 l 535 1119 l 397 1272 m 890 0 l 206 943 l 206 0 l 178 0 l 178 971 l 219 971 l 904 28 l 904 971 l 932 971 l 932 0 "},"Ņ":{"ha":1110,"x_min":0,"x_max":0,"o":"m 932 0 l 890 0 l 206 943 l 206 0 l 178 0 l 178 971 l 219 971 l 904 28 l 904 971 l 932 971 m 563 -90 b 599 -128 582 -90 599 -107 b 585 -162 599 -140 593 -150 l 542 -228 l 514 -228 l 551 -162 b 526 -126 536 -157 526 -143 b 563 -90 526 -106 543 -90 "},"Ñ":{"ha":1110,"x_min":0,"x_max":0,"o":"m 469 1253 b 643 1156 538 1253 583 1156 b 713 1239 688 1156 713 1186 l 740 1239 b 643 1128 740 1169 704 1128 b 469 1225 564 1128 531 1225 b 400 1142 425 1225 400 1194 l 372 1142 b 469 1253 372 1211 408 1253 m 890 0 l 206 943 l 206 0 l 178 0 l 178 971 l 219 971 l 904 28 l 904 971 l 932 971 l 932 0 "},"O":{"ha":1136,"x_min":0,"x_max":0,"o":"m 568 971 b 1067 486 842 971 1067 753 b 568 0 1067 219 842 0 b 69 486 294 0 69 219 b 568 971 69 753 294 971 m 568 943 b 97 486 310 943 97 738 b 568 28 97 235 310 28 b 1039 486 826 28 1039 235 b 568 943 1039 738 826 943 "},"Ó":{"ha":1136,"x_min":0,"x_max":0,"o":"m 568 1119 l 524 1119 l 721 1279 l 747 1265 m 568 971 b 1067 486 842 971 1067 753 b 568 0 1067 219 842 0 b 69 486 294 0 69 219 b 568 971 69 753 294 971 m 568 943 b 97 486 310 943 97 738 b 568 28 97 235 310 28 b 1039 486 826 28 1039 235 b 568 943 1039 738 826 943 "},"Ô":{"ha":1136,"x_min":0,"x_max":0,"o":"m 689 1119 l 568 1253 l 447 1119 l 410 1119 l 547 1272 l 589 1272 l 726 1119 m 568 971 b 1067 486 842 971 1067 753 b 568 0 1067 219 842 0 b 69 486 294 0 69 219 b 568 971 69 753 294 971 m 568 943 b 97 486 310 943 97 738 b 568 28 97 235 310 28 b 1039 486 826 28 1039 235 b 568 943 1039 738 826 943 "},"Ö":{"ha":1136,"x_min":0,"x_max":0,"o":"m 464 1214 b 500 1178 483 1214 500 1197 b 464 1142 500 1158 483 1142 b 428 1178 444 1142 428 1158 b 464 1214 428 1197 444 1214 m 672 1214 b 708 1178 692 1214 708 1197 b 672 1142 708 1158 692 1142 b 636 1178 653 1142 636 1158 b 672 1214 636 1197 653 1214 m 568 971 b 1067 486 842 971 1067 753 b 568 0 1067 219 842 0 b 69 486 294 0 69 219 b 568 971 69 753 294 971 m 568 943 b 97 486 310 943 97 738 b 568 28 97 235 310 28 b 1039 486 826 28 1039 235 b 568 943 1039 738 826 943 "},"Ò":{"ha":1136,"x_min":0,"x_max":0,"o":"m 568 1119 l 389 1265 l 415 1279 l 613 1119 m 568 971 b 1067 486 842 971 1067 753 b 568 0 1067 219 842 0 b 69 486 294 0 69 219 b 568 971 69 753 294 971 m 568 943 b 97 486 310 943 97 738 b 568 28 97 235 310 28 b 1039 486 826 28 1039 235 b 568 943 1039 738 826 943 "},"Ő":{"ha":1136,"x_min":0,"x_max":0,"o":"m 467 1119 l 429 1119 l 574 1279 l 597 1264 m 632 1119 l 594 1119 l 739 1279 l 763 1264 m 568 971 b 1067 486 842 971 1067 753 b 568 0 1067 219 842 0 b 69 486 294 0 69 219 b 568 971 69 753 294 971 m 568 943 b 97 486 310 943 97 738 b 568 28 97 235 310 28 b 1039 486 826 28 1039 235 b 568 943 1039 738 826 943 "},"Ō":{"ha":1136,"x_min":0,"x_max":0,"o":"m 418 1165 l 418 1193 l 719 1193 l 719 1165 m 568 971 b 1067 486 842 971 1067 753 b 568 0 1067 219 842 0 b 69 486 294 0 69 219 b 568 971 69 753 294 971 m 568 943 b 97 486 310 943 97 738 b 568 28 97 235 310 28 b 1039 486 826 28 1039 235 b 568 943 1039 738 826 943 "},"Ø":{"ha":1136,"x_min":0,"x_max":0,"o":"m 717 949 b 1067 486 919 886 1067 703 b 568 0 1067 219 842 0 b 421 22 517 0 467 8 l 351 -194 l 322 -194 l 394 31 b 69 486 206 100 69 279 b 568 971 69 753 294 971 b 690 956 610 971 651 965 l 747 1133 l 776 1133 m 97 486 b 403 57 97 292 225 124 l 682 929 b 568 943 646 939 607 943 b 97 486 310 943 97 738 m 568 28 b 1039 486 826 28 1039 235 b 708 922 1039 690 899 864 l 429 49 b 568 28 474 35 519 28 "},"Õ":{"ha":1136,"x_min":0,"x_max":0,"o":"m 482 1253 b 656 1156 550 1253 596 1156 b 725 1239 700 1156 725 1186 l 753 1239 b 656 1128 753 1169 717 1128 b 482 1225 576 1128 543 1225 b 413 1142 438 1225 413 1194 l 385 1142 b 482 1253 385 1211 421 1253 m 568 971 b 1067 486 842 971 1067 753 b 568 0 1067 219 842 0 b 69 486 294 0 69 219 b 568 971 69 753 294 971 m 568 943 b 97 486 310 943 97 738 b 568 28 97 235 310 28 b 1039 486 826 28 1039 235 b 568 943 1039 738 826 943 "},"Œ":{"ha":1513,"x_min":0,"x_max":0,"o":"m 1422 0 l 568 0 b 69 486 294 0 69 219 b 568 971 69 753 294 971 l 1403 971 l 1403 943 l 824 943 l 824 514 l 1339 514 l 1339 486 l 824 486 l 824 28 l 1422 28 m 796 944 l 568 944 b 96 486 308 944 96 739 b 568 26 96 233 308 26 l 796 24 "},"P":{"ha":919,"x_min":0,"x_max":0,"o":"m 507 971 b 878 656 743 971 878 856 b 507 333 878 451 743 333 l 206 333 l 206 0 l 178 0 l 178 971 m 206 361 l 507 361 b 850 656 725 361 850 468 b 507 943 850 839 725 943 l 206 943 "},"Þ":{"ha":919,"x_min":0,"x_max":0,"o":"m 465 815 b 878 510 742 815 878 715 b 465 197 878 300 742 197 l 206 197 l 206 0 l 178 0 l 178 971 l 206 971 l 206 815 m 465 225 b 850 510 724 225 850 318 b 465 788 850 696 724 788 l 206 788 l 206 225 "},"Q":{"ha":1165,"x_min":0,"x_max":0,"o":"m 1122 -67 b 900 -172 1047 -137 974 -172 b 599 1 806 -172 707 -115 l 568 0 b 69 486 294 0 69 219 b 568 971 69 753 294 971 b 1067 486 842 971 1067 753 b 633 4 1067 242 876 36 b 900 -146 733 -97 818 -146 b 1103 -47 967 -146 1033 -112 m 97 486 b 568 28 97 235 310 28 b 1039 486 826 28 1039 235 b 568 943 1039 738 826 943 b 97 486 310 943 97 738 "},"R":{"ha":1003,"x_min":0,"x_max":0,"o":"m 878 656 b 626 344 878 489 788 379 l 878 0 l 843 0 l 596 339 b 507 333 568 336 539 333 l 206 333 l 206 0 l 178 0 l 178 971 l 507 971 b 878 656 743 971 878 856 m 507 361 b 850 656 725 361 850 468 b 507 943 850 839 725 943 l 206 943 l 206 361 "},"Ŕ":{"ha":1003,"x_min":0,"x_max":0,"o":"m 429 1119 l 626 1279 l 653 1265 l 474 1119 m 878 656 b 626 344 878 489 788 379 l 878 0 l 843 0 l 596 339 b 507 333 568 336 539 333 l 206 333 l 206 0 l 178 0 l 178 971 l 507 971 b 878 656 743 971 878 856 m 507 361 b 850 656 725 361 850 468 b 507 943 850 839 725 943 l 206 943 l 206 361 "},"Ř":{"ha":1003,"x_min":0,"x_max":0,"o":"m 315 1272 l 353 1272 l 474 1139 l 594 1272 l 632 1272 l 494 1119 l 453 1119 m 878 656 b 626 344 878 489 788 379 l 878 0 l 843 0 l 596 339 b 507 333 568 336 539 333 l 206 333 l 206 0 l 178 0 l 178 971 l 507 971 b 878 656 743 971 878 856 m 507 361 b 850 656 725 361 850 468 b 507 943 850 839 725 943 l 206 943 l 206 361 "},"Ŗ":{"ha":1003,"x_min":0,"x_max":0,"o":"m 878 656 b 626 344 878 489 788 379 l 878 0 l 843 0 l 596 339 b 507 333 568 336 539 333 l 206 333 l 206 0 l 178 0 l 178 971 l 507 971 b 878 656 743 971 878 856 m 507 361 b 850 656 725 361 850 468 b 507 943 850 839 725 943 l 206 943 l 206 361 m 508 -90 b 544 -128 528 -90 544 -107 b 531 -162 544 -140 539 -150 l 488 -228 l 460 -228 l 497 -162 b 472 -126 482 -157 472 -143 b 508 -90 472 -106 489 -90 "},"S":{"ha":824,"x_min":0,"x_max":0,"o":"m 419 971 b 678 900 510 971 611 943 l 664 878 b 419 943 601 918 506 943 b 138 756 249 943 138 869 b 718 236 138 431 721 597 b 389 0 718 93 589 0 b 57 136 267 0 138 54 l 76 156 b 389 28 150 78 272 28 b 690 236 572 28 690 110 b 110 756 693 569 110 403 b 419 971 110 886 232 971 "},"Ś":{"ha":824,"x_min":0,"x_max":0,"o":"m 399 1119 l 354 1119 l 551 1279 l 578 1265 m 419 971 b 678 900 510 971 611 943 l 664 878 b 419 943 601 918 506 943 b 138 756 249 943 138 869 b 718 236 138 431 721 597 b 389 0 718 93 589 0 b 57 136 267 0 138 54 l 76 156 b 389 28 150 78 272 28 b 690 236 572 28 690 110 b 110 756 693 569 110 403 b 419 971 110 886 232 971 "},"Š":{"ha":824,"x_min":0,"x_max":0,"o":"m 278 1272 l 399 1139 l 519 1272 l 557 1272 l 419 1119 l 378 1119 l 240 1272 m 419 971 b 678 900 510 971 611 943 l 664 878 b 419 943 601 918 506 943 b 138 756 249 943 138 869 b 718 236 138 431 721 597 b 389 0 718 93 589 0 b 57 136 267 0 138 54 l 76 156 b 389 28 150 78 272 28 b 690 236 572 28 690 110 b 110 756 693 569 110 403 b 419 971 110 886 232 971 "},"Ş":{"ha":824,"x_min":0,"x_max":0,"o":"m 138 756 b 718 236 138 431 721 597 b 446 3 718 107 613 19 l 417 -68 b 519 -164 474 -68 518 -108 b 403 -278 522 -229 474 -278 b 306 -250 369 -278 328 -267 l 317 -224 b 403 -250 338 -239 374 -250 b 492 -164 457 -250 494 -214 b 418 -93 490 -124 460 -93 l 378 -93 l 418 0 l 389 0 b 57 136 267 0 138 54 l 76 156 b 389 28 150 78 272 28 b 690 236 572 28 690 110 b 110 756 693 569 110 403 b 419 971 110 886 232 971 b 678 900 510 971 611 943 l 664 878 b 419 943 601 918 506 943 b 138 756 249 943 138 869 "},"Ș":{"ha":824,"x_min":0,"x_max":0,"o":"m 138 756 b 718 236 138 431 721 597 b 389 0 718 93 589 0 b 57 136 267 0 138 54 l 76 156 b 389 28 150 78 272 28 b 690 236 572 28 690 110 b 110 756 693 569 110 403 b 419 971 110 886 232 971 b 678 900 510 971 611 943 l 664 878 b 419 943 601 918 506 943 b 138 756 249 943 138 869 m 419 -90 b 456 -128 439 -90 456 -107 b 442 -162 456 -140 450 -150 l 399 -228 l 371 -228 l 408 -162 b 383 -126 393 -157 383 -143 b 419 -90 383 -106 400 -90 "},"T":{"ha":731,"x_min":0,"x_max":0,"o":"m 379 943 l 379 0 l 351 0 l 351 943 l 18 943 l 18 971 l 713 971 l 713 943 "},"Ť":{"ha":731,"x_min":0,"x_max":0,"o":"m 244 1272 l 365 1139 l 486 1272 l 524 1272 l 386 1119 l 344 1119 l 207 1272 m 379 943 l 379 0 l 351 0 l 351 943 l 18 943 l 18 971 l 713 971 l 713 943 "},"Ţ":{"ha":731,"x_min":0,"x_max":0,"o":"m 349 -68 b 451 -164 406 -68 450 -108 b 335 -278 454 -229 406 -278 b 238 -250 301 -278 260 -267 l 249 -224 b 335 -250 269 -239 306 -250 b 424 -164 389 -250 426 -214 b 350 -93 422 -124 392 -93 l 310 -93 l 351 6 l 351 943 l 18 943 l 18 971 l 713 971 l 713 943 l 379 943 l 379 0 l 376 0 "},"Ț":{"ha":731,"x_min":0,"x_max":0,"o":"m 713 943 l 379 943 l 379 0 l 351 0 l 351 943 l 18 943 l 18 971 l 713 971 m 351 -90 b 388 -128 371 -90 388 -107 b 374 -162 388 -140 382 -150 l 331 -228 l 303 -228 l 340 -162 b 315 -126 325 -157 315 -143 b 351 -90 315 -106 332 -90 "},"U":{"ha":1075,"x_min":0,"x_max":0,"o":"m 922 394 b 538 0 922 143 782 0 b 153 394 293 0 153 143 l 153 971 l 181 971 l 181 394 b 538 28 181 161 311 28 b 894 394 764 28 894 161 l 894 971 l 922 971 "},"Ú":{"ha":1075,"x_min":0,"x_max":0,"o":"m 538 1119 l 493 1119 l 690 1279 l 717 1265 m 922 394 b 538 0 922 143 782 0 b 153 394 293 0 153 143 l 153 971 l 181 971 l 181 394 b 538 28 181 161 311 28 b 894 394 764 28 894 161 l 894 971 l 922 971 "},"Û":{"ha":1075,"x_min":0,"x_max":0,"o":"m 658 1119 l 538 1253 l 417 1119 l 379 1119 l 517 1272 l 558 1272 l 696 1119 m 922 394 b 538 0 922 143 782 0 b 153 394 293 0 153 143 l 153 971 l 181 971 l 181 394 b 538 28 181 161 311 28 b 894 394 764 28 894 161 l 894 971 l 922 971 "},"Ü":{"ha":1075,"x_min":0,"x_max":0,"o":"m 433 1214 b 469 1178 453 1214 469 1197 b 433 1142 469 1158 453 1142 b 397 1178 414 1142 397 1158 b 433 1214 397 1197 414 1214 m 642 1214 b 678 1178 661 1214 678 1197 b 642 1142 678 1158 661 1142 b 606 1178 622 1142 606 1158 b 642 1214 606 1197 622 1214 m 922 394 b 538 0 922 143 782 0 b 153 394 293 0 153 143 l 153 971 l 181 971 l 181 394 b 538 28 181 161 311 28 b 894 394 764 28 894 161 l 894 971 l 922 971 "},"Ù":{"ha":1075,"x_min":0,"x_max":0,"o":"m 538 1119 l 358 1265 l 385 1279 l 582 1119 m 922 394 b 538 0 922 143 782 0 b 153 394 293 0 153 143 l 153 971 l 181 971 l 181 394 b 538 28 181 161 311 28 b 894 394 764 28 894 161 l 894 971 l 922 971 "},"Ű":{"ha":1075,"x_min":0,"x_max":0,"o":"m 436 1119 l 399 1119 l 543 1279 l 567 1264 m 601 1119 l 564 1119 l 708 1279 l 732 1264 m 922 394 b 538 0 922 143 782 0 b 153 394 293 0 153 143 l 153 971 l 181 971 l 181 394 b 538 28 181 161 311 28 b 894 394 764 28 894 161 l 894 971 l 922 971 "},"Ū":{"ha":1075,"x_min":0,"x_max":0,"o":"m 388 1165 l 388 1193 l 689 1193 l 689 1165 m 922 394 b 538 0 922 143 782 0 b 153 394 293 0 153 143 l 153 971 l 181 971 l 181 394 b 538 28 181 161 311 28 b 894 394 764 28 894 161 l 894 971 l 922 971 "},"Ų":{"ha":1075,"x_min":0,"x_max":0,"o":"m 922 394 b 658 14 922 188 828 54 b 568 -182 586 -83 568 -135 b 629 -249 568 -225 594 -249 b 713 -201 660 -249 688 -229 l 732 -221 b 629 -276 706 -251 667 -276 b 540 -182 579 -276 540 -239 b 626 7 540 -133 564 -79 b 538 0 599 3 568 0 b 153 394 293 0 153 143 l 153 971 l 181 971 l 181 394 b 538 28 181 161 311 28 b 894 394 764 28 894 161 l 894 971 l 922 971 "},"Ů":{"ha":1075,"x_min":0,"x_max":0,"o":"m 538 1331 b 694 1179 622 1331 694 1260 b 538 1029 694 1099 622 1029 b 382 1179 453 1029 382 1099 b 538 1331 382 1260 453 1331 m 538 1303 b 410 1179 468 1303 410 1246 b 538 1057 410 1113 468 1057 b 667 1179 607 1057 667 1113 b 538 1303 667 1246 607 1303 m 922 394 b 538 0 922 143 782 0 b 153 394 293 0 153 143 l 153 971 l 181 971 l 181 394 b 538 28 181 161 311 28 b 894 394 764 28 894 161 l 894 971 l 922 971 "},"V":{"ha":869,"x_min":0,"x_max":0,"o":"m 419 0 l 14 971 l 46 971 l 435 32 l 822 971 l 856 971 l 450 0 "},"W":{"ha":1371,"x_min":0,"x_max":0,"o":"m 999 0 l 686 932 l 372 0 l 343 0 l 14 971 l 46 971 l 358 32 l 669 971 l 701 971 l 1014 32 l 1325 971 l 1357 971 l 1028 0 "},"Ẃ":{"ha":1371,"x_min":0,"x_max":0,"o":"m 547 1119 l 503 1119 l 700 1279 l 726 1265 m 999 0 l 686 932 l 372 0 l 343 0 l 14 971 l 46 971 l 358 32 l 669 971 l 701 971 l 1014 32 l 1325 971 l 1357 971 l 1028 0 "},"Ŵ":{"ha":1371,"x_min":0,"x_max":0,"o":"m 668 1119 l 547 1253 l 426 1119 l 389 1119 l 526 1272 l 568 1272 l 706 1119 m 999 0 l 686 932 l 372 0 l 343 0 l 14 971 l 46 971 l 358 32 l 669 971 l 701 971 l 1014 32 l 1325 971 l 1357 971 l 1028 0 "},"Ẅ":{"ha":1371,"x_min":0,"x_max":0,"o":"m 443 1214 b 479 1178 463 1214 479 1197 b 443 1142 479 1158 463 1142 b 407 1178 424 1142 407 1158 b 443 1214 407 1197 424 1214 m 651 1214 b 688 1178 671 1214 688 1197 b 651 1142 688 1158 671 1142 b 615 1178 632 1142 615 1158 b 651 1214 615 1197 632 1214 m 999 0 l 686 932 l 372 0 l 343 0 l 14 971 l 46 971 l 358 32 l 669 971 l 701 971 l 1014 32 l 1325 971 l 1357 971 l 1028 0 "},"Ẁ":{"ha":1371,"x_min":0,"x_max":0,"o":"m 547 1119 l 368 1265 l 394 1279 l 592 1119 m 999 0 l 686 932 l 372 0 l 343 0 l 14 971 l 46 971 l 358 32 l 669 971 l 701 971 l 1014 32 l 1325 971 l 1357 971 l 1028 0 "},"X":{"ha":865,"x_min":0,"x_max":0,"o":"m 806 0 l 772 0 l 425 481 l 79 0 l 46 0 l 408 503 l 72 971 l 106 971 l 425 526 l 746 971 l 779 971 l 442 503 "},"Y":{"ha":842,"x_min":0,"x_max":0,"o":"m 438 0 l 410 0 l 410 374 l 14 971 l 47 971 l 424 401 l 794 971 l 828 971 l 438 374 "},"Ý":{"ha":842,"x_min":0,"x_max":0,"o":"m 376 1119 l 574 1279 l 600 1265 l 421 1119 m 438 0 l 410 0 l 410 374 l 14 971 l 47 971 l 424 401 l 794 971 l 828 971 l 438 374 "},"Ŷ":{"ha":842,"x_min":0,"x_max":0,"o":"m 263 1119 l 400 1272 l 442 1272 l 579 1119 l 542 1119 l 421 1253 l 300 1119 m 438 0 l 410 0 l 410 374 l 14 971 l 47 971 l 424 401 l 794 971 l 828 971 l 438 374 "},"Ÿ":{"ha":842,"x_min":0,"x_max":0,"o":"m 317 1142 b 281 1178 297 1142 281 1158 b 317 1214 281 1197 297 1214 b 353 1178 336 1214 353 1197 b 317 1142 353 1158 336 1142 m 525 1142 b 489 1178 506 1142 489 1158 b 525 1214 489 1197 506 1214 b 561 1178 544 1214 561 1197 b 525 1142 561 1158 544 1142 m 438 0 l 410 0 l 410 374 l 14 971 l 47 971 l 424 401 l 794 971 l 828 971 l 438 374 "},"Ỳ":{"ha":842,"x_min":0,"x_max":0,"o":"m 242 1265 l 268 1279 l 465 1119 l 421 1119 m 438 0 l 410 0 l 410 374 l 14 971 l 47 971 l 424 401 l 794 971 l 828 971 l 438 374 "},"Z":{"ha":903,"x_min":0,"x_max":0,"o":"m 100 28 l 831 28 l 831 0 l 72 0 l 72 35 l 799 943 l 92 943 l 92 971 l 826 971 l 826 936 "},"Ź":{"ha":903,"x_min":0,"x_max":0,"o":"m 451 1119 l 407 1119 l 604 1279 l 631 1265 m 100 28 l 831 28 l 831 0 l 72 0 l 72 35 l 799 943 l 92 943 l 92 971 l 826 971 l 826 936 "},"Ž":{"ha":903,"x_min":0,"x_max":0,"o":"m 331 1272 l 451 1139 l 572 1272 l 610 1272 l 472 1119 l 431 1119 l 293 1272 m 100 28 l 831 28 l 831 0 l 72 0 l 72 35 l 799 943 l 92 943 l 92 971 l 826 971 l 826 936 "},"Ż":{"ha":903,"x_min":0,"x_max":0,"o":"m 451 1214 b 488 1178 471 1214 488 1197 b 451 1142 488 1158 471 1142 b 415 1178 432 1142 415 1158 b 451 1214 415 1197 432 1214 m 100 28 l 831 28 l 831 0 l 72 0 l 72 35 l 799 943 l 92 943 l 92 971 l 826 971 l 826 936 "},"a":{"ha":781,"x_min":0,"x_max":0,"o":"m 622 163 b 321 0 558 50 450 0 b 88 207 182 0 88 88 b 354 392 88 324 190 392 l 621 392 l 621 479 b 393 690 619 611 544 690 b 142 590 297 690 219 651 l 125 613 b 393 718 206 676 292 718 b 649 479 558 718 647 625 l 651 0 l 624 0 m 322 28 b 622 225 461 28 565 83 l 621 364 l 354 364 b 115 207 201 364 115 307 b 322 28 115 101 196 28 "},"á":{"ha":781,"x_min":0,"x_max":0,"o":"m 338 867 l 535 1026 l 561 1013 l 382 867 m 622 163 b 321 0 558 50 450 0 b 88 207 182 0 88 88 b 354 392 88 324 190 392 l 621 392 l 621 479 b 393 690 619 611 544 690 b 142 590 297 690 219 651 l 125 613 b 393 718 206 676 292 718 b 649 479 558 718 647 625 l 651 0 l 624 0 m 322 28 b 622 225 461 28 565 83 l 621 364 l 354 364 b 115 207 201 364 115 307 b 322 28 115 101 196 28 "},"ă":{"ha":781,"x_min":0,"x_max":0,"o":"m 382 863 b 236 1008 303 863 239 925 l 264 1008 b 382 890 267 942 317 890 b 500 1008 447 890 497 942 l 528 1008 b 382 863 525 925 461 863 m 622 163 b 321 0 558 50 450 0 b 88 207 182 0 88 88 b 354 392 88 324 190 392 l 621 392 l 621 479 b 393 690 619 611 544 690 b 142 590 297 690 219 651 l 125 613 b 393 718 206 676 292 718 b 649 479 558 718 647 625 l 651 0 l 624 0 m 322 28 b 622 225 461 28 565 83 l 621 364 l 354 364 b 115 207 201 364 115 307 b 322 28 115 101 196 28 "},"â":{"ha":781,"x_min":0,"x_max":0,"o":"m 224 867 l 361 1019 l 403 1019 l 540 867 l 503 867 l 382 1000 l 261 867 m 622 163 b 321 0 558 50 450 0 b 88 207 182 0 88 88 b 354 392 88 324 190 392 l 621 392 l 621 479 b 393 690 619 611 544 690 b 142 590 297 690 219 651 l 125 613 b 393 718 206 676 292 718 b 649 479 558 718 647 625 l 651 0 l 624 0 m 322 28 b 622 225 461 28 565 83 l 621 364 l 354 364 b 115 207 201 364 115 307 b 322 28 115 101 196 28 "},"ä":{"ha":781,"x_min":0,"x_max":0,"o":"m 278 889 b 242 925 258 889 242 906 b 278 961 242 944 258 961 b 314 925 297 961 314 944 b 278 889 314 906 297 889 m 486 889 b 450 925 467 889 450 906 b 486 961 450 944 467 961 b 522 925 506 961 522 944 b 486 889 522 906 506 889 m 622 163 b 321 0 558 50 450 0 b 88 207 182 0 88 88 b 354 392 88 324 190 392 l 621 392 l 621 479 b 393 690 619 611 544 690 b 142 590 297 690 219 651 l 125 613 b 393 718 206 676 292 718 b 649 479 558 718 647 625 l 651 0 l 624 0 m 322 28 b 622 225 461 28 565 83 l 621 364 l 354 364 b 115 207 201 364 115 307 b 322 28 115 101 196 28 "},"à":{"ha":781,"x_min":0,"x_max":0,"o":"m 203 1013 l 229 1026 l 426 867 l 382 867 m 622 163 b 321 0 558 50 450 0 b 88 207 182 0 88 88 b 354 392 88 324 190 392 l 621 392 l 621 479 b 393 690 619 611 544 690 b 142 590 297 690 219 651 l 125 613 b 393 718 206 676 292 718 b 649 479 558 718 647 625 l 651 0 l 624 0 m 322 28 b 622 225 461 28 565 83 l 621 364 l 354 364 b 115 207 201 364 115 307 b 322 28 115 101 196 28 "},"ā":{"ha":781,"x_min":0,"x_max":0,"o":"m 232 913 l 232 940 l 533 940 l 533 913 m 622 163 b 321 0 558 50 450 0 b 88 207 182 0 88 88 b 354 392 88 324 190 392 l 621 392 l 621 479 b 393 690 619 611 544 690 b 142 590 297 690 219 651 l 125 613 b 393 718 206 676 292 718 b 649 479 558 718 647 625 l 651 0 l 624 0 m 322 28 b 622 225 461 28 565 83 l 621 364 l 354 364 b 115 207 201 364 115 307 b 322 28 115 101 196 28 "},"ą":{"ha":786,"x_min":0,"x_max":0,"o":"m 400 718 b 654 479 561 718 653 625 l 654 0 l 653 0 b 529 -182 553 -92 529 -139 b 590 -249 529 -225 556 -249 b 674 -201 621 -249 649 -229 l 693 -221 b 589 -276 664 -254 626 -276 b 501 -183 540 -276 501 -237 b 628 10 501 -135 533 -78 l 626 10 l 626 160 b 332 0 560 46 443 0 b 88 204 176 0 88 92 b 357 392 88 325 192 392 l 626 392 l 626 479 b 400 690 625 611 547 690 b 142 590 297 690 221 651 l 125 613 b 400 718 207 676 292 718 m 357 364 b 115 203 201 364 115 308 b 333 28 115 108 186 28 b 626 221 450 28 567 78 l 626 364 "},"å":{"ha":781,"x_min":0,"x_max":0,"o":"m 382 776 b 226 926 297 776 226 846 b 382 1078 226 1007 297 1078 b 539 926 467 1078 539 1007 b 382 776 539 846 467 776 m 382 1050 b 254 926 313 1050 254 993 b 382 804 254 860 313 804 b 511 926 451 804 511 860 b 382 1050 511 993 451 1050 m 622 163 b 321 0 558 50 450 0 b 88 207 182 0 88 88 b 354 392 88 324 190 392 l 621 392 l 621 479 b 393 690 619 611 544 690 b 142 590 297 690 219 651 l 125 613 b 393 718 206 676 292 718 b 649 479 558 718 647 625 l 651 0 l 624 0 m 322 28 b 622 225 461 28 565 83 l 621 364 l 354 364 b 115 207 201 364 115 307 b 322 28 115 101 196 28 "},"ã":{"ha":781,"x_min":0,"x_max":0,"o":"m 296 972 b 226 889 251 972 226 942 l 199 889 b 296 1000 199 958 235 1000 b 469 903 364 1000 410 903 b 539 986 514 903 539 933 l 567 986 b 469 875 567 917 531 875 b 296 972 390 875 357 972 m 622 163 b 321 0 558 50 450 0 b 88 207 182 0 88 88 b 354 392 88 324 190 392 l 621 392 l 621 479 b 393 690 619 611 544 690 b 142 590 297 690 219 651 l 125 613 b 393 718 206 676 292 718 b 649 479 558 718 647 625 l 651 0 l 624 0 m 322 28 b 622 225 461 28 565 83 l 621 364 l 354 364 b 115 207 201 364 115 307 b 322 28 115 101 196 28 "},"æ":{"ha":1372,"x_min":0,"x_max":0,"o":"m 972 28 b 1226 132 1076 28 1165 65 l 1246 113 b 972 0 1179 42 1083 0 b 651 215 824 0 701 85 b 322 0 589 64 471 0 b 88 207 183 0 88 88 b 356 392 88 324 192 392 l 624 392 l 622 479 b 393 690 621 611 544 690 b 140 590 296 690 219 651 l 124 613 b 393 718 206 676 290 718 b 649 499 551 718 640 633 b 972 718 699 632 821 718 b 1306 360 1171 718 1306 568 l 653 360 b 972 28 653 164 788 28 m 972 690 b 654 388 797 690 667 567 l 1278 388 b 972 690 1265 567 1149 690 m 322 28 b 639 256 467 28 575 86 b 625 360 629 288 625 322 l 625 364 l 356 364 b 115 207 203 364 115 307 b 322 28 115 101 197 28 "},"b":{"ha":929,"x_min":0,"x_max":0,"o":"m 508 718 b 857 358 710 718 857 567 b 508 0 857 151 710 0 b 188 211 358 0 239 83 l 188 0 l 160 0 l 160 1031 l 188 1031 l 188 507 b 508 718 239 635 358 718 m 508 28 b 829 358 694 28 829 167 b 508 690 829 550 694 690 b 188 358 322 690 188 550 b 508 28 188 167 322 28 "},"c":{"ha":774,"x_min":0,"x_max":0,"o":"m 421 718 b 665 622 517 718 603 682 l 647 603 b 421 690 588 657 511 690 b 99 360 235 690 99 554 b 421 28 99 164 235 28 b 663 132 519 28 604 65 l 681 113 b 421 0 618 42 526 0 b 72 360 221 0 72 150 b 421 718 72 568 221 718 "},"ć":{"ha":774,"x_min":0,"x_max":0,"o":"m 388 867 l 343 867 l 540 1026 l 567 1013 m 421 718 b 665 622 517 718 603 682 l 647 603 b 421 690 588 657 511 690 b 99 360 235 690 99 554 b 421 28 99 164 235 28 b 663 132 519 28 604 65 l 681 113 b 421 0 618 42 526 0 b 72 360 221 0 72 150 b 421 718 72 568 221 718 "},"č":{"ha":774,"x_min":0,"x_max":0,"o":"m 267 1019 l 388 886 l 508 1019 l 546 1019 l 408 867 l 367 867 l 229 1019 m 421 718 b 665 622 517 718 603 682 l 647 603 b 421 690 588 657 511 690 b 99 360 235 690 99 554 b 421 28 99 164 235 28 b 663 132 519 28 604 65 l 681 113 b 421 0 618 42 526 0 b 72 360 221 0 72 150 b 421 718 72 568 221 718 "},"ç":{"ha":774,"x_min":0,"x_max":0,"o":"m 681 113 b 433 0 621 44 533 4 l 406 -68 b 508 -164 463 -68 507 -108 b 392 -278 511 -229 463 -278 b 294 -250 358 -278 317 -267 l 306 -224 b 392 -250 326 -239 363 -250 b 481 -164 446 -250 483 -214 b 407 -93 479 -124 449 -93 l 367 -93 l 406 0 b 72 360 214 7 72 156 b 421 718 72 568 221 718 b 665 622 517 718 603 682 l 647 603 b 421 690 588 657 511 690 b 99 360 235 690 99 554 b 421 28 99 164 235 28 b 663 132 519 28 604 65 "},"d":{"ha":935,"x_min":0,"x_max":0,"o":"m 775 0 l 747 0 l 747 211 b 424 -3 694 82 575 -3 b 72 358 221 -3 72 150 b 424 721 72 568 221 721 b 747 507 575 721 694 636 l 747 1031 l 775 1031 m 424 25 b 747 358 611 25 747 165 b 424 693 747 551 611 693 b 100 358 236 693 100 551 b 424 25 100 165 236 25 "},"ð":{"ha":786,"x_min":0,"x_max":0,"o":"m 447 871 b 717 315 615 710 717 508 b 390 0 717 124 589 0 b 83 308 204 0 83 121 b 399 608 83 490 207 608 b 685 438 528 608 640 542 b 415 861 644 589 546 742 l 229 808 l 222 835 l 390 883 b 217 1006 338 931 278 972 l 233 1031 b 422 893 303 990 367 944 l 586 940 l 593 913 m 397 28 b 689 300 575 28 689 135 b 399 581 689 471 575 581 b 111 311 224 581 111 475 b 397 28 111 139 224 28 "},"ď":{"ha":925,"x_min":0,"x_max":0,"o":"m 775 1031 l 775 0 l 747 0 l 747 211 b 424 -3 694 82 575 -3 b 72 358 221 -3 72 150 b 424 721 72 568 221 721 b 747 507 575 721 694 636 l 747 1031 m 921 971 b 957 933 940 971 957 954 b 943 899 957 921 951 911 l 900 833 l 872 833 l 910 899 b 885 935 894 904 885 918 b 921 971 885 956 901 971 m 424 25 b 747 358 611 25 747 165 b 424 693 747 551 611 693 b 100 358 236 693 100 551 b 424 25 100 165 236 25 "},"đ":{"ha":926,"x_min":0,"x_max":0,"o":"m 775 913 l 775 0 l 747 0 l 747 211 b 424 -3 694 82 575 -3 b 72 358 221 -3 72 150 b 424 721 72 568 221 721 b 747 507 575 721 694 636 l 747 913 l 579 913 l 579 940 l 747 940 l 747 1031 l 775 1031 l 775 940 l 881 940 l 881 913 m 424 25 b 747 358 611 25 747 165 b 424 693 747 551 611 693 b 100 358 236 693 100 551 b 424 25 100 165 236 25 "},"e":{"ha":818,"x_min":0,"x_max":0,"o":"m 418 28 b 672 132 522 28 613 65 l 692 113 b 418 0 626 42 529 0 b 72 360 219 0 72 150 b 418 718 72 568 219 718 b 751 360 618 718 751 568 l 100 360 b 418 28 100 164 233 28 m 418 690 b 101 388 243 690 114 567 l 724 388 b 418 690 711 567 596 690 "},"é":{"ha":818,"x_min":0,"x_max":0,"o":"m 365 867 l 563 1026 l 589 1013 l 410 867 m 418 28 b 672 132 522 28 613 65 l 692 113 b 418 0 626 42 529 0 b 72 360 219 0 72 150 b 418 718 72 568 219 718 b 751 360 618 718 751 568 l 100 360 b 418 28 100 164 233 28 m 418 690 b 101 388 243 690 114 567 l 724 388 b 418 690 711 567 596 690 "},"ě":{"ha":818,"x_min":0,"x_max":0,"o":"m 251 1019 l 289 1019 l 410 886 l 531 1019 l 568 1019 l 431 867 l 389 867 m 418 28 b 672 132 522 28 613 65 l 692 113 b 418 0 626 42 529 0 b 72 360 219 0 72 150 b 418 718 72 568 219 718 b 751 360 618 718 751 568 l 100 360 b 418 28 100 164 233 28 m 418 690 b 101 388 243 690 114 567 l 724 388 b 418 690 711 567 596 690 "},"ê":{"ha":818,"x_min":0,"x_max":0,"o":"m 251 867 l 389 1019 l 431 1019 l 568 867 l 531 867 l 410 1000 l 289 867 m 418 28 b 672 132 522 28 613 65 l 692 113 b 418 0 626 42 529 0 b 72 360 219 0 72 150 b 418 718 72 568 219 718 b 751 360 618 718 751 568 l 100 360 b 418 28 100 164 233 28 m 418 690 b 101 388 243 690 114 567 l 724 388 b 418 690 711 567 596 690 "},"ë":{"ha":818,"x_min":0,"x_max":0,"o":"m 306 889 b 269 925 286 889 269 906 b 306 961 269 944 286 961 b 342 925 325 961 342 944 b 306 889 342 906 325 889 m 514 889 b 478 925 494 889 478 906 b 514 961 478 944 494 961 b 550 925 533 961 550 944 b 514 889 550 906 533 889 m 418 28 b 672 132 522 28 613 65 l 692 113 b 418 0 626 42 529 0 b 72 360 219 0 72 150 b 418 718 72 568 219 718 b 751 360 618 718 751 568 l 100 360 b 418 28 100 164 233 28 m 418 690 b 101 388 243 690 114 567 l 724 388 b 418 690 711 567 596 690 "},"ė":{"ha":818,"x_min":0,"x_max":0,"o":"m 410 889 b 374 925 390 889 374 906 b 410 961 374 944 390 961 b 446 925 429 961 446 944 b 410 889 446 906 429 889 m 418 28 b 672 132 522 28 613 65 l 692 113 b 418 0 626 42 529 0 b 72 360 219 0 72 150 b 418 718 72 568 219 718 b 751 360 618 718 751 568 l 100 360 b 418 28 100 164 233 28 m 418 690 b 101 388 243 690 114 567 l 724 388 b 418 690 711 567 596 690 "},"è":{"ha":818,"x_min":0,"x_max":0,"o":"m 231 1013 l 257 1026 l 454 867 l 410 867 m 418 28 b 672 132 522 28 613 65 l 692 113 b 418 0 626 42 529 0 b 72 360 219 0 72 150 b 418 718 72 568 219 718 b 751 360 618 718 751 568 l 100 360 b 418 28 100 164 233 28 m 418 690 b 101 388 243 690 114 567 l 724 388 b 418 690 711 567 596 690 "},"ē":{"ha":818,"x_min":0,"x_max":0,"o":"m 260 913 l 260 940 l 561 940 l 561 913 m 418 28 b 672 132 522 28 613 65 l 692 113 b 418 0 626 42 529 0 b 72 360 219 0 72 150 b 418 718 72 568 219 718 b 751 360 618 718 751 568 l 100 360 b 418 28 100 164 233 28 m 418 690 b 101 388 243 690 114 567 l 724 388 b 418 690 711 567 596 690 "},"ę":{"ha":818,"x_min":0,"x_max":0,"o":"m 418 718 b 751 360 618 718 751 568 l 100 360 b 418 28 100 164 233 28 b 672 132 522 28 613 65 l 692 113 b 558 -182 581 -32 558 -112 b 619 -249 558 -225 585 -249 b 701 -201 649 -249 676 -229 l 721 -221 b 619 -276 694 -251 656 -276 b 531 -182 569 -276 531 -239 b 635 71 531 -117 557 -39 b 418 0 574 25 500 0 b 72 360 219 0 72 150 b 418 718 72 568 219 718 m 418 690 b 101 388 243 690 113 567 l 724 388 b 418 690 711 567 596 690 "},"f":{"ha":410,"x_min":0,"x_max":0,"o":"m 365 1003 b 190 806 267 1004 190 919 l 190 704 l 424 704 l 424 676 l 190 676 l 190 0 l 163 0 l 163 676 l 72 676 l 72 704 l 163 704 l 163 806 b 365 1031 163 933 253 1032 b 507 979 415 1029 468 1010 l 490 957 b 365 1003 454 985 410 1001 "},"g":{"ha":875,"x_min":0,"x_max":0,"o":"m 744 82 b 403 -268 744 -132 610 -269 b 114 -143 288 -264 197 -225 l 133 -124 b 403 -240 210 -200 294 -236 b 717 82 593 -242 717 -115 l 717 231 b 407 26 667 107 551 26 b 72 371 214 26 72 172 b 407 718 72 572 214 718 b 717 513 551 718 667 638 l 717 718 l 744 718 m 407 53 b 717 371 586 53 717 188 b 407 692 717 556 586 692 b 99 371 228 692 99 556 b 407 53 99 188 228 53 "},"ğ":{"ha":875,"x_min":0,"x_max":0,"o":"m 438 863 b 292 1008 358 863 294 925 l 319 1008 b 438 890 322 942 372 890 b 556 1008 503 890 553 942 l 583 1008 b 438 863 581 925 517 863 m 744 82 b 403 -268 744 -132 610 -269 b 114 -143 288 -264 197 -225 l 133 -124 b 403 -240 210 -200 294 -236 b 717 82 593 -242 717 -115 l 717 231 b 407 26 667 107 551 26 b 72 371 214 26 72 172 b 407 718 72 572 214 718 b 717 513 551 718 667 638 l 717 718 l 744 718 m 407 53 b 717 371 586 53 717 188 b 407 692 717 556 586 692 b 99 371 228 692 99 556 b 407 53 99 188 228 53 "},"ģ":{"ha":875,"x_min":0,"x_max":0,"o":"m 432 808 b 396 846 413 808 396 825 b 410 881 396 858 401 868 l 453 946 l 481 946 l 443 881 b 468 844 458 875 468 861 b 432 808 468 824 451 808 m 744 82 b 403 -268 744 -132 610 -269 b 114 -143 288 -264 197 -225 l 133 -124 b 403 -240 210 -200 294 -236 b 717 82 593 -242 717 -115 l 717 231 b 407 26 667 107 551 26 b 72 371 214 26 72 172 b 407 718 72 572 214 718 b 717 513 551 718 667 638 l 717 718 l 744 718 m 407 53 b 717 371 586 53 717 188 b 407 692 717 556 586 692 b 99 371 228 692 99 556 b 407 53 99 188 228 53 "},"h":{"ha":903,"x_min":0,"x_max":0,"o":"m 492 718 b 774 435 669 718 774 613 l 774 0 l 746 0 l 746 435 b 492 690 746 596 651 690 b 188 351 300 686 188 560 l 188 0 l 160 0 l 160 1031 l 188 1031 l 188 511 b 492 718 233 640 339 715 "},"ħ":{"ha":892,"x_min":0,"x_max":0,"o":"m 492 718 b 774 435 669 718 774 613 l 774 0 l 746 0 l 746 435 b 492 690 746 596 651 690 b 188 351 300 686 188 560 l 188 0 l 160 0 l 160 854 l 35 854 l 35 882 l 160 882 l 160 1031 l 188 1031 l 188 882 l 438 882 l 438 854 l 188 854 l 188 511 b 492 718 233 640 339 715 "},"i":{"ha":333,"x_min":0,"x_max":0,"o":"m 167 961 b 203 925 186 961 203 944 b 167 889 203 906 186 889 b 131 925 147 889 131 906 b 167 961 131 944 147 961 m 153 0 l 153 718 l 181 718 l 181 0 "},"ı":{"ha":333,"x_min":0,"x_max":0,"o":"m 153 0 l 153 718 l 181 718 l 181 0 "},"í":{"ha":333,"x_min":0,"x_max":0,"o":"m 167 867 l 122 867 l 319 1026 l 346 1013 m 153 0 l 153 718 l 181 718 l 181 0 "},"î":{"ha":333,"x_min":0,"x_max":0,"o":"m 288 867 l 167 1000 l 46 867 l 8 867 l 146 1019 l 188 1019 l 325 867 m 153 0 l 153 718 l 181 718 l 181 0 "},"ï":{"ha":333,"x_min":0,"x_max":0,"o":"m 63 961 b 99 925 82 961 99 944 b 63 889 99 906 82 889 b 26 925 43 889 26 906 b 63 961 26 944 43 961 m 271 961 b 307 925 290 961 307 944 b 271 889 307 906 290 889 b 235 925 251 889 235 906 b 271 961 235 944 251 961 m 153 0 l 153 718 l 181 718 l 181 0 "},"ì":{"ha":333,"x_min":0,"x_max":0,"o":"m 167 867 l -12 1013 l 14 1026 l 211 867 m 153 0 l 153 718 l 181 718 l 181 0 "},"ĳ":{"ha":660,"x_min":0,"x_max":0,"o":"m 167 961 b 203 925 186 961 203 944 b 167 889 203 906 186 889 b 131 925 147 889 131 906 b 167 961 131 944 147 961 m 493 961 b 529 925 513 961 529 944 b 493 889 529 906 513 889 b 457 925 474 889 457 906 b 493 961 457 944 474 961 m 153 0 l 153 718 l 181 718 l 181 0 m 507 -43 b 346 -268 507 -193 451 -269 b 204 -217 294 -267 246 -249 l 221 -194 b 346 -240 257 -224 301 -239 b 479 -43 433 -242 479 -174 l 479 718 l 507 718 "},"ī":{"ha":333,"x_min":0,"x_max":0,"o":"m 15 913 l 15 940 l 317 940 l 317 913 m 153 0 l 153 718 l 181 718 l 181 0 "},"į":{"ha":319,"x_min":0,"x_max":0,"o":"m 160 961 b 196 925 179 961 196 944 b 160 889 196 906 179 889 b 124 925 140 889 124 906 b 160 961 124 944 140 961 m 172 0 b 101 -182 114 -92 101 -139 b 163 -249 101 -225 128 -249 b 246 -201 193 -249 221 -229 l 265 -221 b 163 -276 239 -251 200 -276 b 74 -182 113 -276 74 -239 b 147 0 74 -137 94 -86 l 146 0 l 146 718 l 174 718 l 174 0 "},"ĩ":{"ha":333,"x_min":0,"x_max":0,"o":"m 79 1000 b 253 903 147 1000 193 903 b 322 986 297 903 322 933 l 350 986 b 253 875 350 917 314 875 b 79 972 174 875 140 972 b 10 889 35 972 10 942 l -18 889 b 79 1000 -18 958 18 1000 m 153 0 l 153 718 l 181 718 l 181 0 "},"j":{"ha":326,"x_min":0,"x_max":0,"o":"m 160 961 b 196 925 179 961 196 944 b 160 889 196 906 179 889 b 124 925 140 889 124 906 b 160 961 124 944 140 961 m 174 -43 b 13 -268 174 -193 118 -269 b -129 -217 -39 -267 -87 -249 l -112 -194 b 13 -240 -76 -224 -32 -239 b 146 -43 100 -242 146 -174 l 146 718 l 174 718 "},"ȷ":{"ha":304,"x_min":0,"x_max":0,"o":"m 174 -43 b 13 -268 174 -193 118 -269 b -129 -217 -39 -267 -87 -249 l -112 -194 b 13 -240 -76 -224 -32 -239 b 146 -43 100 -242 146 -174 l 146 718 l 174 718 "},"ĵ":{"ha":304,"x_min":0,"x_max":0,"o":"m 281 867 l 160 1000 l 39 867 l 1 867 l 139 1019 l 181 1019 l 318 867 m 174 -43 b 13 -268 174 -193 118 -269 b -129 -217 -39 -267 -87 -249 l -112 -194 b 13 -240 -76 -224 -32 -239 b 146 -43 100 -242 146 -174 l 146 718 l 174 718 "},"k":{"ha":747,"x_min":0,"x_max":0,"o":"m 188 214 l 188 0 l 160 0 l 160 1031 l 188 1031 l 188 257 l 644 718 l 683 718 l 410 440 l 725 0 l 692 0 l 390 419 "},"ķ":{"ha":747,"x_min":0,"x_max":0,"o":"m 151 -61 b 253 -157 208 -61 251 -101 b 136 -271 256 -222 207 -271 b 39 -243 103 -271 61 -260 l 50 -217 b 136 -243 71 -232 107 -243 b 225 -157 190 -243 228 -207 b 151 -86 224 -117 193 -86 l 113 -86 l 150 0 l 160 0 l 160 1031 l 188 1031 l 188 257 l 644 718 l 683 718 l 410 440 l 725 0 l 692 0 l 390 419 l 188 214 l 188 0 l 178 0 "},"ĸ":{"ha":743,"x_min":0,"x_max":0,"o":"m 181 211 l 181 0 l 153 0 l 153 718 l 181 718 l 181 254 l 640 718 l 679 718 l 406 440 l 721 0 l 688 0 l 386 419 "},"l":{"ha":347,"x_min":0,"x_max":0,"o":"m 160 0 l 160 1031 l 188 1031 l 188 0 "},"ĺ":{"ha":347,"x_min":0,"x_max":0,"o":"m 174 1179 l 129 1179 l 326 1339 l 353 1325 m 160 0 l 160 1031 l 188 1031 l 188 0 "},"ľ":{"ha":328,"x_min":0,"x_max":0,"o":"m 188 1031 l 188 0 l 160 0 l 160 1031 m 324 971 b 360 933 343 971 360 954 b 346 899 360 921 354 911 l 303 833 l 275 833 l 313 899 b 288 935 297 904 288 918 b 324 971 288 956 304 971 "},"ļ":{"ha":347,"x_min":0,"x_max":0,"o":"m 160 0 l 160 1031 l 188 1031 l 188 0 m 181 -90 b 217 -128 200 -90 217 -107 b 203 -162 217 -140 211 -150 l 160 -228 l 132 -228 l 169 -162 b 144 -126 154 -157 144 -143 b 181 -90 144 -106 161 -90 "},"ŀ":{"ha":328,"x_min":0,"x_max":0,"o":"m 160 0 l 160 1031 l 188 1031 l 188 0 m 324 460 b 360 424 343 460 360 443 b 324 388 360 404 343 388 b 288 424 304 388 288 404 b 324 460 288 443 304 460 "},"ł":{"ha":356,"x_min":0,"x_max":0,"o":"m 201 0 l 174 0 l 174 633 l 7 586 l 0 613 l 174 663 l 174 1031 l 201 1031 l 201 671 l 364 718 l 371 690 l 201 642 "},"m":{"ha":1453,"x_min":0,"x_max":0,"o":"m 1049 718 b 1324 435 1222 718 1324 613 l 1324 0 l 1296 0 l 1296 435 b 1049 690 1296 596 1204 690 b 753 351 861 686 753 560 l 753 0 l 725 0 l 725 435 b 476 690 725 596 632 690 b 181 351 290 686 181 560 l 181 0 l 153 0 l 153 718 l 181 718 l 181 513 b 478 718 225 642 329 715 b 749 499 628 718 726 638 b 1049 718 790 636 896 715 "},"n":{"ha":894,"x_min":0,"x_max":0,"o":"m 483 718 b 765 435 661 718 765 613 l 765 0 l 738 0 l 738 435 b 483 690 738 596 643 690 b 181 390 304 686 194 575 l 181 0 l 153 0 l 153 718 l 181 718 l 181 515 b 483 718 226 642 333 715 "},"ń":{"ha":894,"x_min":0,"x_max":0,"o":"m 417 867 l 614 1026 l 640 1013 l 461 867 m 483 718 b 765 435 661 718 765 613 l 765 0 l 738 0 l 738 435 b 483 690 738 596 643 690 b 181 390 304 686 194 575 l 181 0 l 153 0 l 153 718 l 181 718 l 181 515 b 483 718 226 642 333 715 "},"ň":{"ha":894,"x_min":0,"x_max":0,"o":"m 303 1019 l 340 1019 l 461 886 l 582 1019 l 619 1019 l 482 867 l 440 867 m 483 718 b 765 435 661 718 765 613 l 765 0 l 738 0 l 738 435 b 483 690 738 596 643 690 b 181 390 304 686 194 575 l 181 0 l 153 0 l 153 718 l 181 718 l 181 515 b 483 718 226 642 333 715 "},"ņ":{"ha":894,"x_min":0,"x_max":0,"o":"m 483 718 b 765 435 661 718 765 613 l 765 0 l 738 0 l 738 435 b 483 690 738 596 643 690 b 181 390 304 686 194 575 l 181 0 l 153 0 l 153 718 l 181 718 l 181 515 b 483 718 226 642 333 715 m 458 -90 b 494 -128 478 -90 494 -107 b 481 -162 494 -140 489 -150 l 438 -228 l 410 -228 l 447 -162 b 422 -126 432 -157 422 -143 b 458 -90 422 -106 439 -90 "},"ñ":{"ha":894,"x_min":0,"x_max":0,"o":"m 375 972 b 306 889 331 972 306 942 l 278 889 b 375 1000 278 958 314 1000 b 549 903 443 1000 489 903 b 618 986 593 903 618 933 l 646 986 b 549 875 646 917 610 875 b 375 972 469 875 436 972 m 483 718 b 765 435 661 718 765 613 l 765 0 l 738 0 l 738 435 b 483 690 738 596 643 690 b 181 390 304 686 194 575 l 181 0 l 153 0 l 153 718 l 181 718 l 181 515 b 483 718 226 642 333 715 "},"o":{"ha":842,"x_min":0,"x_max":0,"o":"m 421 718 b 769 360 621 718 769 568 b 421 0 769 150 621 0 b 72 360 221 0 72 150 b 421 718 72 568 221 718 m 421 690 b 100 360 235 690 100 554 b 421 28 100 164 235 28 b 742 360 607 28 742 164 b 421 690 742 554 607 690 "},"ó":{"ha":842,"x_min":0,"x_max":0,"o":"m 421 867 l 376 867 l 574 1026 l 600 1013 m 421 718 b 769 360 621 718 769 568 b 421 0 769 150 621 0 b 72 360 221 0 72 150 b 421 718 72 568 221 718 m 421 690 b 100 360 235 690 100 554 b 421 28 100 164 235 28 b 742 360 607 28 742 164 b 421 690 742 554 607 690 "},"ô":{"ha":842,"x_min":0,"x_max":0,"o":"m 542 867 l 421 1000 l 300 867 l 263 867 l 400 1019 l 442 1019 l 579 867 m 421 718 b 769 360 621 718 769 568 b 421 0 769 150 621 0 b 72 360 221 0 72 150 b 421 718 72 568 221 718 m 421 690 b 100 360 235 690 100 554 b 421 28 100 164 235 28 b 742 360 607 28 742 164 b 421 690 742 554 607 690 "},"ö":{"ha":842,"x_min":0,"x_max":0,"o":"m 317 961 b 353 925 336 961 353 944 b 317 889 353 906 336 889 b 281 925 297 889 281 906 b 317 961 281 944 297 961 m 525 961 b 561 925 544 961 561 944 b 525 889 561 906 544 889 b 489 925 506 889 489 906 b 525 961 489 944 506 961 m 421 718 b 769 360 621 718 769 568 b 421 0 769 150 621 0 b 72 360 221 0 72 150 b 421 718 72 568 221 718 m 421 690 b 100 360 235 690 100 554 b 421 28 100 164 235 28 b 742 360 607 28 742 164 b 421 690 742 554 607 690 "},"ò":{"ha":842,"x_min":0,"x_max":0,"o":"m 421 867 l 242 1013 l 268 1026 l 465 867 m 421 718 b 769 360 621 718 769 568 b 421 0 769 150 621 0 b 72 360 221 0 72 150 b 421 718 72 568 221 718 m 421 690 b 100 360 235 690 100 554 b 421 28 100 164 235 28 b 742 360 607 28 742 164 b 421 690 742 554 607 690 "},"ő":{"ha":842,"x_min":0,"x_max":0,"o":"m 319 867 l 282 867 l 426 1026 l 450 1011 m 485 867 l 447 867 l 592 1026 l 615 1011 m 421 718 b 769 360 621 718 769 568 b 421 0 769 150 621 0 b 72 360 221 0 72 150 b 421 718 72 568 221 718 m 421 690 b 100 360 235 690 100 554 b 421 28 100 164 235 28 b 742 360 607 28 742 164 b 421 690 742 554 607 690 "},"ō":{"ha":842,"x_min":0,"x_max":0,"o":"m 271 913 l 271 940 l 572 940 l 572 913 m 421 718 b 769 360 621 718 769 568 b 421 0 769 150 621 0 b 72 360 221 0 72 150 b 421 718 72 568 221 718 m 421 690 b 100 360 235 690 100 554 b 421 28 100 164 235 28 b 742 360 607 28 742 164 b 421 690 742 554 607 690 "},"ø":{"ha":842,"x_min":0,"x_max":0,"o":"m 543 697 b 769 360 678 650 769 522 b 421 0 769 150 621 0 b 325 13 388 0 354 4 l 253 -212 l 224 -212 l 299 21 b 72 360 163 68 72 196 b 421 718 72 568 221 718 b 517 706 454 718 486 714 l 581 907 l 610 907 m 100 360 b 307 47 100 207 182 90 l 508 679 b 421 690 481 686 451 690 b 100 360 235 690 100 554 m 421 28 b 742 360 607 28 742 164 b 535 672 742 511 660 628 l 333 39 b 421 28 361 32 390 28 "},"õ":{"ha":842,"x_min":0,"x_max":0,"o":"m 335 1000 b 508 903 403 1000 449 903 b 578 986 553 903 578 933 l 606 986 b 508 875 606 917 569 875 b 335 972 429 875 396 972 b 265 889 290 972 265 942 l 238 889 b 335 1000 238 958 274 1000 m 421 718 b 769 360 621 718 769 568 b 421 0 769 150 621 0 b 72 360 221 0 72 150 b 421 718 72 568 221 718 m 421 690 b 100 360 235 690 100 554 b 421 28 100 164 235 28 b 742 360 607 28 742 164 b 421 690 742 554 607 690 "},"œ":{"ha":1493,"x_min":0,"x_max":0,"o":"m 1092 28 b 1347 132 1196 28 1286 65 l 1367 113 b 1092 0 1300 42 1203 0 b 757 256 926 0 797 101 b 421 0 715 101 586 0 b 72 360 221 0 72 150 b 421 718 72 568 221 718 b 757 464 586 718 715 617 b 1092 718 797 617 926 718 b 1426 360 1292 718 1426 568 l 771 360 b 1092 28 771 164 906 28 m 421 28 b 742 360 607 28 742 164 b 421 690 742 554 607 690 b 100 360 235 690 100 554 b 421 28 100 164 235 28 m 1092 690 b 772 388 915 690 785 567 l 1399 388 b 1092 690 1386 567 1269 690 "},"p":{"ha":929,"x_min":0,"x_max":0,"o":"m 508 718 b 857 358 710 718 857 567 b 508 0 857 151 710 0 b 188 211 358 0 239 83 l 188 -269 l 160 -269 l 160 718 l 188 718 l 188 507 b 508 718 239 635 358 718 m 508 28 b 829 358 694 28 829 167 b 508 690 829 550 694 690 b 188 358 322 690 188 550 b 508 28 188 167 322 28 "},"þ":{"ha":929,"x_min":0,"x_max":0,"o":"m 508 718 b 857 358 710 718 857 567 b 508 0 857 151 710 0 b 188 211 358 0 239 83 l 188 -269 l 160 -269 l 160 1031 l 188 1031 l 188 507 b 508 718 239 635 358 718 m 508 28 b 829 358 694 28 829 167 b 508 690 829 550 694 690 b 188 358 322 690 188 550 b 508 28 188 167 322 28 "},"q":{"ha":935,"x_min":0,"x_max":0,"o":"m 775 -269 l 747 -269 l 747 211 b 424 -3 694 82 575 -3 b 72 358 221 -3 72 150 b 424 721 72 568 221 721 b 747 507 575 721 694 636 l 747 718 l 775 718 m 424 25 b 747 358 611 25 747 165 b 424 693 747 551 611 693 b 100 358 236 693 100 551 b 424 25 100 165 236 25 "},"r":{"ha":469,"x_min":0,"x_max":0,"o":"m 181 522 b 456 718 224 644 319 715 l 456 690 b 181 393 293 686 193 576 l 181 0 l 153 0 l 153 718 l 181 718 "},"ŕ":{"ha":469,"x_min":0,"x_max":0,"o":"m 186 867 l 383 1026 l 410 1013 l 231 867 m 181 522 b 456 718 224 644 319 715 l 456 690 b 181 393 293 686 193 576 l 181 0 l 153 0 l 153 718 l 181 718 "},"ř":{"ha":469,"x_min":0,"x_max":0,"o":"m 72 1019 l 110 1019 l 231 886 l 351 1019 l 389 1019 l 251 867 l 210 867 m 181 522 b 456 718 224 644 319 715 l 456 690 b 181 393 293 686 193 576 l 181 0 l 153 0 l 153 718 l 181 718 "},"ŗ":{"ha":469,"x_min":0,"x_max":0,"o":"m 181 522 b 456 718 224 644 319 715 l 456 690 b 181 393 293 686 193 576 l 181 0 l 153 0 l 153 718 l 181 718 m 174 -90 b 210 -128 193 -90 210 -107 b 196 -162 210 -140 204 -150 l 153 -228 l 125 -228 l 163 -162 b 138 -126 147 -157 138 -143 b 174 -90 138 -106 154 -90 "},"s":{"ha":593,"x_min":0,"x_max":0,"o":"m 308 718 b 500 667 385 718 447 697 l 486 643 b 310 690 440 672 381 690 b 108 549 197 690 108 646 b 540 186 108 333 540 436 b 299 0 540 57 424 0 b 42 100 199 0 106 36 l 60 121 b 299 28 121 61 204 28 b 513 179 411 28 508 75 b 81 546 521 400 81 304 b 308 718 81 664 185 718 "},"ś":{"ha":593,"x_min":0,"x_max":0,"o":"m 296 867 l 251 867 l 449 1026 l 475 1013 m 308 718 b 500 667 385 718 447 697 l 486 643 b 310 690 440 672 381 690 b 108 549 197 690 108 646 b 540 186 108 333 540 436 b 299 0 540 57 424 0 b 42 100 199 0 106 36 l 60 121 b 299 28 121 61 204 28 b 513 179 411 28 508 75 b 81 546 521 400 81 304 b 308 718 81 664 185 718 "},"š":{"ha":593,"x_min":0,"x_max":0,"o":"m 175 1019 l 296 886 l 417 1019 l 454 1019 l 317 867 l 275 867 l 138 1019 m 308 718 b 500 667 385 718 447 697 l 486 643 b 310 690 440 672 381 690 b 108 549 197 690 108 646 b 540 186 108 333 540 436 b 299 0 540 57 424 0 b 42 100 199 0 106 36 l 60 121 b 299 28 121 61 204 28 b 513 179 411 28 508 75 b 81 546 521 400 81 304 b 308 718 81 664 185 718 "},"ş":{"ha":593,"x_min":0,"x_max":0,"o":"m 540 186 b 325 1 540 65 439 8 l 296 -68 b 399 -164 353 -68 397 -108 b 282 -278 401 -229 353 -278 b 185 -250 249 -278 207 -267 l 196 -224 b 282 -250 217 -239 253 -250 b 371 -164 336 -250 374 -214 b 297 -93 369 -124 339 -93 l 257 -93 l 296 0 b 42 100 197 0 106 36 l 60 121 b 299 28 121 61 204 28 b 513 179 411 28 508 75 b 81 546 521 400 81 304 b 308 718 81 664 185 718 b 500 667 385 718 447 697 l 486 643 b 310 690 440 672 381 690 b 108 549 197 690 108 646 b 540 186 108 333 540 436 "},"ș":{"ha":593,"x_min":0,"x_max":0,"o":"m 108 549 b 540 186 108 333 540 436 b 299 0 540 57 424 0 b 42 100 199 0 106 36 l 60 121 b 299 28 121 61 204 28 b 513 179 411 28 508 75 b 81 546 521 400 81 304 b 308 718 81 664 185 718 b 500 667 385 718 447 697 l 486 643 b 310 690 440 672 381 690 b 108 549 197 690 108 646 m 299 -90 b 335 -128 318 -90 335 -107 b 321 -162 335 -140 329 -150 l 278 -228 l 250 -228 l 288 -162 b 263 -126 272 -157 263 -143 b 299 -90 263 -106 279 -90 "},"ß":{"ha":889,"x_min":0,"x_max":0,"o":"m 460 1031 b 739 778 629 1031 739 932 b 532 524 739 647 657 547 b 789 274 688 506 789 407 b 458 0 789 107 660 0 l 382 0 l 382 28 l 458 28 b 761 274 642 28 761 125 b 446 507 761 415 638 507 l 439 507 l 439 535 b 711 778 604 535 711 631 b 460 1003 711 914 613 1003 b 181 689 290 1003 181 879 l 181 0 l 153 0 l 153 689 b 460 1031 153 896 274 1031 "},"t":{"ha":503,"x_min":0,"x_max":0,"o":"m 469 51 b 328 0 428 19 379 1 b 175 197 228 -1 175 67 l 175 676 l 69 676 l 69 704 l 175 704 l 175 875 l 203 875 l 203 704 l 456 704 l 456 676 l 203 676 l 203 197 b 328 28 203 86 246 26 b 453 74 372 29 417 44 "},"ť":{"ha":503,"x_min":0,"x_max":0,"o":"m 357 899 b 332 935 342 904 332 918 b 368 971 332 956 349 971 b 404 933 388 971 404 954 b 390 899 404 921 399 911 l 347 833 l 319 833 m 469 51 b 328 0 428 19 379 1 b 175 197 228 -1 175 67 l 175 676 l 69 676 l 69 704 l 175 704 l 175 875 l 203 875 l 203 704 l 456 704 l 456 676 l 203 676 l 203 197 b 328 28 203 86 246 26 b 453 74 372 29 417 44 "},"ţ":{"ha":503,"x_min":0,"x_max":0,"o":"m 311 -68 b 414 -164 368 -68 413 -108 b 297 -278 417 -229 368 -278 b 200 -250 264 -278 222 -267 l 211 -224 b 297 -250 232 -239 268 -250 b 386 -164 351 -250 389 -214 b 313 -93 385 -124 354 -93 l 272 -93 l 311 0 b 175 197 222 7 175 74 l 175 676 l 69 676 l 69 704 l 175 704 l 175 875 l 203 875 l 203 704 l 456 704 l 456 676 l 203 676 l 203 197 b 328 28 203 86 246 26 b 453 74 372 29 417 44 l 469 51 b 340 0 431 22 386 4 "},"ț":{"ha":503,"x_min":0,"x_max":0,"o":"m 328 0 b 175 197 228 -1 175 67 l 175 676 l 69 676 l 69 704 l 175 704 l 175 875 l 203 875 l 203 704 l 456 704 l 456 676 l 203 676 l 203 197 b 328 28 203 86 246 26 b 453 74 372 29 417 44 l 469 51 b 328 0 428 19 379 1 m 314 -90 b 350 -128 333 -90 350 -107 b 336 -162 350 -140 344 -150 l 293 -228 l 265 -228 l 303 -162 b 278 -126 288 -157 278 -143 b 314 -90 278 -106 294 -90 "},"u":{"ha":885,"x_min":0,"x_max":0,"o":"m 732 0 l 704 0 l 704 210 b 406 0 660 78 556 3 b 128 283 231 0 128 106 l 128 718 l 156 718 l 156 283 b 406 28 156 122 249 28 b 704 367 593 32 704 158 l 704 718 l 732 718 "},"ú":{"ha":885,"x_min":0,"x_max":0,"o":"m 394 867 l 592 1026 l 618 1013 l 439 867 m 732 0 l 704 0 l 704 210 b 406 0 660 78 556 3 b 128 283 231 0 128 106 l 128 718 l 156 718 l 156 283 b 406 28 156 122 249 28 b 704 367 593 32 704 158 l 704 718 l 732 718 "},"û":{"ha":885,"x_min":0,"x_max":0,"o":"m 281 867 l 418 1019 l 460 1019 l 597 867 l 560 867 l 439 1000 l 318 867 m 732 0 l 704 0 l 704 210 b 406 0 660 78 556 3 b 128 283 231 0 128 106 l 128 718 l 156 718 l 156 283 b 406 28 156 122 249 28 b 704 367 593 32 704 158 l 704 718 l 732 718 "},"ü":{"ha":885,"x_min":0,"x_max":0,"o":"m 335 889 b 299 925 315 889 299 906 b 335 961 299 944 315 961 b 371 925 354 961 371 944 b 335 889 371 906 354 889 m 543 889 b 507 925 524 889 507 906 b 543 961 507 944 524 961 b 579 925 563 961 579 944 b 543 889 579 906 563 889 m 732 0 l 704 0 l 704 210 b 406 0 660 78 556 3 b 128 283 231 0 128 106 l 128 718 l 156 718 l 156 283 b 406 28 156 122 249 28 b 704 367 593 32 704 158 l 704 718 l 732 718 "},"ù":{"ha":885,"x_min":0,"x_max":0,"o":"m 260 1013 l 286 1026 l 483 867 l 439 867 m 732 0 l 704 0 l 704 210 b 406 0 660 78 556 3 b 128 283 231 0 128 106 l 128 718 l 156 718 l 156 283 b 406 28 156 122 249 28 b 704 367 593 32 704 158 l 704 718 l 732 718 "},"ű":{"ha":885,"x_min":0,"x_max":0,"o":"m 300 867 l 444 1026 l 468 1011 l 338 867 m 610 1026 l 633 1011 l 503 867 l 465 867 m 732 0 l 704 0 l 704 210 b 406 0 660 78 556 3 b 128 283 231 0 128 106 l 128 718 l 156 718 l 156 283 b 406 28 156 122 249 28 b 704 367 593 32 704 158 l 704 718 l 732 718 "},"ū":{"ha":885,"x_min":0,"x_max":0,"o":"m 289 913 l 289 940 l 590 940 l 590 913 m 732 0 l 704 0 l 704 210 b 406 0 660 78 556 3 b 128 283 231 0 128 106 l 128 718 l 156 718 l 156 283 b 406 28 156 122 249 28 b 704 367 593 32 704 158 l 704 718 l 732 718 "},"ų":{"ha":888,"x_min":0,"x_max":0,"o":"m 740 0 b 649 -182 661 -93 649 -147 b 708 -249 649 -231 675 -249 b 793 -201 740 -249 767 -231 l 813 -221 b 708 -276 783 -254 746 -276 b 621 -185 665 -276 621 -249 b 715 7 621 -143 640 -90 l 714 7 l 714 203 b 410 1 668 79 567 1 b 129 283 229 1 129 106 l 129 718 l 157 718 l 157 283 b 413 28 157 118 256 26 b 714 328 583 29 701 140 l 714 718 l 742 718 l 742 0 "},"ů":{"ha":885,"x_min":0,"x_max":0,"o":"m 439 776 b 283 926 354 776 283 846 b 439 1078 283 1007 354 1078 b 596 926 524 1078 596 1007 b 439 776 596 846 524 776 m 439 1050 b 311 926 369 1050 311 993 b 439 804 311 860 369 804 b 568 926 508 804 568 860 b 439 1050 568 993 508 1050 m 732 0 l 704 0 l 704 210 b 406 0 660 78 556 3 b 128 283 231 0 128 106 l 128 718 l 156 718 l 156 283 b 406 28 156 122 249 28 b 704 367 593 32 704 158 l 704 718 l 732 718 "},"v":{"ha":633,"x_min":0,"x_max":0,"o":"m 308 0 l 14 718 l 46 718 l 324 32 l 600 718 l 633 718 l 339 0 "},"w":{"ha":1136,"x_min":0,"x_max":0,"o":"m 832 0 l 576 679 l 318 0 l 288 0 l 14 718 l 47 718 l 304 32 l 558 718 l 592 718 l 849 32 l 1104 718 l 1136 718 l 863 0 "},"ẃ":{"ha":1136,"x_min":0,"x_max":0,"o":"m 568 867 l 524 867 l 721 1026 l 747 1013 m 832 0 l 576 679 l 318 0 l 288 0 l 14 718 l 47 718 l 304 32 l 558 718 l 592 718 l 849 32 l 1104 718 l 1136 718 l 863 0 "},"ŵ":{"ha":1136,"x_min":0,"x_max":0,"o":"m 689 867 l 568 1000 l 447 867 l 410 867 l 547 1019 l 589 1019 l 726 867 m 832 0 l 576 679 l 318 0 l 288 0 l 14 718 l 47 718 l 304 32 l 558 718 l 592 718 l 849 32 l 1104 718 l 1136 718 l 863 0 "},"ẅ":{"ha":1136,"x_min":0,"x_max":0,"o":"m 464 961 b 500 925 483 961 500 944 b 464 889 500 906 483 889 b 428 925 444 889 428 906 b 464 961 428 944 444 961 m 672 961 b 708 925 692 961 708 944 b 672 889 708 906 692 889 b 636 925 653 889 636 906 b 672 961 636 944 653 961 m 832 0 l 576 679 l 318 0 l 288 0 l 14 718 l 47 718 l 304 32 l 558 718 l 592 718 l 849 32 l 1104 718 l 1136 718 l 863 0 "},"ẁ":{"ha":1136,"x_min":0,"x_max":0,"o":"m 568 867 l 389 1013 l 415 1026 l 613 867 m 832 0 l 576 679 l 318 0 l 288 0 l 14 718 l 47 718 l 304 32 l 558 718 l 592 718 l 849 32 l 1104 718 l 1136 718 l 863 0 "},"x":{"ha":679,"x_min":0,"x_max":0,"o":"m 578 718 l 611 718 l 354 372 l 631 0 l 596 0 l 336 349 l 78 0 l 43 0 l 319 372 l 64 718 l 97 718 l 338 394 "},"y":{"ha":633,"x_min":0,"x_max":0,"o":"m 297 -104 b 110 -269 253 -211 186 -269 b -18 -233 60 -269 15 -257 l -6 -210 b 107 -242 25 -231 65 -242 b 275 -94 178 -242 238 -189 l 311 -3 l 14 718 l 46 718 l 325 32 l 600 718 l 633 718 "},"ý":{"ha":633,"x_min":0,"x_max":0,"o":"m 324 867 l 279 867 l 476 1026 l 503 1013 m 297 -104 b 110 -269 253 -211 186 -269 b -18 -233 60 -269 15 -257 l -6 -210 b 107 -242 25 -231 65 -242 b 275 -94 178 -242 238 -189 l 311 -3 l 14 718 l 46 718 l 325 32 l 600 718 l 633 718 "},"ŷ":{"ha":633,"x_min":0,"x_max":0,"o":"m 444 867 l 324 1000 l 203 867 l 165 867 l 303 1019 l 344 1019 l 482 867 m 297 -104 b 110 -269 253 -211 186 -269 b -18 -233 60 -269 15 -257 l -6 -210 b 107 -242 25 -231 65 -242 b 275 -94 178 -242 238 -189 l 311 -3 l 14 718 l 46 718 l 325 32 l 600 718 l 633 718 "},"ÿ":{"ha":633,"x_min":0,"x_max":0,"o":"m 219 961 b 256 925 239 961 256 944 b 219 889 256 906 239 889 b 183 925 200 889 183 906 b 219 961 183 944 200 961 m 428 961 b 464 925 447 961 464 944 b 428 889 464 906 447 889 b 392 925 408 889 392 906 b 428 961 392 944 408 961 m 297 -104 b 110 -269 253 -211 186 -269 b -18 -233 60 -269 15 -257 l -6 -210 b 107 -242 25 -231 65 -242 b 275 -94 178 -242 238 -189 l 311 -3 l 14 718 l 46 718 l 325 32 l 600 718 l 633 718 "},"ỳ":{"ha":633,"x_min":0,"x_max":0,"o":"m 324 867 l 144 1013 l 171 1026 l 368 867 m 297 -104 b 110 -269 253 -211 186 -269 b -18 -233 60 -269 15 -257 l -6 -210 b 107 -242 25 -231 65 -242 b 275 -94 178 -242 238 -189 l 311 -3 l 14 718 l 46 718 l 325 32 l 600 718 l 633 718 "},"z":{"ha":708,"x_min":0,"x_max":0,"o":"m 114 28 l 638 26 l 638 -1 l 86 0 l 86 35 l 600 689 l 99 690 l 99 718 l 628 717 l 628 682 "},"ź":{"ha":708,"x_min":0,"x_max":0,"o":"m 354 867 l 310 867 l 507 1026 l 533 1013 m 114 28 l 638 26 l 638 -1 l 86 0 l 86 35 l 600 689 l 99 690 l 99 718 l 628 717 l 628 682 "},"ž":{"ha":708,"x_min":0,"x_max":0,"o":"m 233 1019 l 354 886 l 475 1019 l 513 1019 l 375 867 l 333 867 l 196 1019 m 114 28 l 638 26 l 638 -1 l 86 0 l 86 35 l 600 689 l 99 690 l 99 718 l 628 717 l 628 682 "},"ż":{"ha":708,"x_min":0,"x_max":0,"o":"m 354 961 b 390 925 374 961 390 944 b 354 889 390 906 374 889 b 318 925 335 889 318 906 b 354 961 318 944 335 961 m 114 28 l 638 26 l 638 -1 l 86 0 l 86 35 l 600 689 l 99 690 l 99 718 l 628 717 l 628 682 "},"ﬁ":{"ha":743,"x_min":0,"x_max":0,"o":"m 163 819 b 365 1044 163 947 253 1046 b 490 1004 410 1043 456 1028 l 490 971 b 365 1017 454 999 410 1015 b 190 819 267 1018 190 933 l 190 718 l 424 718 l 424 690 l 190 690 l 190 0 l 163 0 l 163 690 l 72 690 l 72 718 l 163 718 m 576 961 b 613 925 596 961 613 944 b 576 889 613 906 596 889 b 540 925 557 889 540 906 b 576 961 540 944 557 961 m 590 718 l 590 0 l 563 0 l 563 718 "},"ﬂ":{"ha":757,"x_min":0,"x_max":0,"o":"m 163 819 b 365 1044 163 947 253 1046 b 490 1004 410 1043 456 1028 l 490 971 b 365 1017 454 999 410 1015 b 190 819 267 1018 190 933 l 190 718 l 424 718 l 424 690 l 190 690 l 190 0 l 163 0 l 163 690 l 72 690 l 72 718 l 163 718 m 597 0 l 569 0 l 569 1031 l 597 1031 "},"ª":{"ha":517,"x_min":0,"x_max":0,"o":"m 393 728 b 213 636 354 664 292 636 b 71 757 128 636 71 686 b 233 867 71 826 133 867 l 392 867 l 392 913 b 257 1029 390 986 346 1029 b 106 974 201 1029 154 1008 l 93 996 b 261 1056 144 1032 199 1056 b 419 914 363 1056 419 1000 l 421 636 l 393 636 m 218 660 b 393 768 299 660 358 690 l 392 844 l 236 844 b 99 758 149 844 99 814 b 218 660 99 700 146 660 "},"º":{"ha":550,"x_min":0,"x_max":0,"o":"m 275 1056 b 488 846 397 1056 488 968 b 275 636 488 722 397 636 b 63 846 151 636 63 722 b 275 1056 63 968 151 1056 m 275 1029 b 90 846 168 1029 90 954 b 275 661 90 736 168 661 b 458 846 382 661 458 736 b 275 1029 458 954 382 1029 "},"Δ":{"ha":953,"x_min":0,"x_max":0,"o":"m 14 0 l 458 971 l 489 971 l 939 0 m 474 939 l 60 28 l 894 28 "},"Ω":{"ha":1286,"x_min":0,"x_max":0,"o":"m 643 971 b 1142 490 929 971 1142 765 b 899 28 1142 311 1042 124 l 1268 28 l 1268 0 l 846 0 l 846 29 b 1114 490 1001 110 1114 303 b 643 943 1114 751 915 943 b 172 490 371 943 172 751 b 442 28 172 303 285 108 l 442 0 l 18 0 l 18 28 l 388 28 b 144 490 244 124 144 311 b 643 971 144 765 357 971 "},"µ":{"ha":915,"x_min":0,"x_max":0,"o":"m 763 0 l 735 0 l 735 210 b 436 0 690 78 586 3 b 188 139 315 0 229 50 l 188 -269 l 160 -269 l 160 249 b 158 283 158 260 158 271 l 158 718 l 188 718 l 188 250 b 436 28 200 110 290 28 b 735 367 624 32 735 158 l 735 718 l 763 718 "},"π":{"ha":997,"x_min":0,"x_max":0,"o":"m 735 690 l 735 0 l 707 0 l 707 690 l 371 690 l 290 0 l 263 0 l 343 690 l 225 690 b 28 515 111 690 26 614 b 74 389 29 471 46 426 l 51 374 b 0 515 21 413 1 465 b 225 718 -1 628 97 718 l 989 718 l 988 690 "},"⁄":{"ha":28,"x_min":0,"x_max":0,"o":"m 358 971 l 394 971 l -353 0 l -389 0 "},"½":{"ha":1021,"x_min":0,"x_max":0,"o":"m 776 971 l 813 971 l 65 0 l 29 0 m 161 944 l 38 944 l 38 971 l 190 971 l 190 407 l 161 407 m 742 564 b 908 431 844 564 908 513 b 807 251 908 381 871 314 l 597 26 l 950 26 l 950 0 l 564 0 l 564 29 l 788 268 b 879 429 844 325 879 386 b 739 538 879 496 826 538 b 579 468 683 538 622 511 l 563 489 b 742 564 611 536 678 564 "},"¼":{"ha":989,"x_min":0,"x_max":0,"o":"m 776 971 l 813 971 l 65 0 l 29 0 m 161 944 l 38 944 l 38 971 l 190 971 l 190 407 l 161 407 m 817 363 l 846 363 l 846 188 l 938 188 l 938 163 l 846 163 l 846 0 l 817 0 l 817 163 l 536 163 l 536 192 l 756 564 l 786 564 l 565 188 l 817 188 "},"¾":{"ha":1082,"x_min":0,"x_max":0,"o":"m 869 971 l 906 971 l 158 0 l 122 0 m 206 726 b 396 578 319 725 396 671 b 200 407 396 476 321 407 b 31 456 139 407 75 426 l 46 479 b 199 432 86 450 143 432 b 367 575 304 432 367 492 b 197 703 367 658 303 703 l 135 703 l 135 724 l 332 944 l 54 944 l 54 969 l 368 969 l 368 949 l 171 726 m 910 363 l 939 363 l 939 188 l 1031 188 l 1031 163 l 939 163 l 939 0 l 910 0 l 910 163 l 629 163 l 629 192 l 849 564 l 879 564 l 658 188 l 910 188 "},"⅛":{"ha":1019,"x_min":0,"x_max":0,"o":"m 776 971 l 813 971 l 65 0 l 29 0 m 161 944 l 38 944 l 38 971 l 190 971 l 190 407 l 161 407 m 747 564 b 924 428 856 564 924 514 b 819 301 924 364 885 322 b 950 157 901 282 950 232 b 747 0 950 57 874 0 b 543 157 619 0 543 57 b 675 301 543 232 593 282 b 569 429 608 322 569 364 b 747 564 569 514 638 564 m 747 540 b 596 426 653 540 596 497 b 747 311 596 354 653 311 b 897 426 840 311 897 354 b 747 540 897 497 840 540 m 746 286 b 571 160 638 286 571 238 b 747 25 571 75 636 25 b 922 158 856 25 922 74 b 746 286 922 238 857 286 "},"⅜":{"ha":1113,"x_min":0,"x_max":0,"o":"m 869 971 l 906 971 l 158 0 l 122 0 m 206 726 b 396 578 319 725 396 671 b 200 407 396 476 321 407 b 31 456 139 407 75 426 l 46 479 b 199 432 86 450 143 432 b 367 575 304 432 367 492 b 197 703 367 658 303 703 l 135 703 l 135 724 l 332 944 l 54 944 l 54 969 l 368 969 l 368 949 l 171 726 m 840 564 b 1017 428 949 564 1017 514 b 913 301 1017 364 978 322 b 1043 157 994 282 1043 232 b 840 0 1043 57 967 0 b 636 157 713 0 636 57 b 768 301 636 232 686 282 b 663 429 701 322 663 364 b 840 564 663 514 731 564 m 840 540 b 689 426 746 540 689 497 b 840 311 689 354 746 311 b 990 426 933 311 990 354 b 840 540 990 497 933 540 m 839 286 b 664 160 731 286 664 238 b 840 25 664 75 729 25 b 1015 158 949 25 1015 74 b 839 286 1015 238 950 286 "},"⅝":{"ha":1143,"x_min":0,"x_max":0,"o":"m 122 724 b 242 744 160 736 208 744 b 432 589 358 744 432 683 b 239 408 432 479 357 408 b 56 464 181 408 108 431 l 69 488 b 238 433 118 454 185 433 b 403 588 339 433 403 493 b 239 719 403 668 339 719 b 93 693 199 719 138 710 l 93 971 l 411 971 l 411 944 l 122 944 m 900 971 l 936 971 l 189 0 l 153 0 m 871 564 b 1047 428 979 564 1047 514 b 943 301 1047 364 1008 322 b 1074 157 1025 282 1074 232 b 871 0 1074 57 997 0 b 667 157 743 0 667 57 b 799 301 667 232 717 282 b 693 429 732 322 693 364 b 871 564 693 514 761 564 m 871 540 b 719 426 776 540 719 497 b 871 311 719 354 776 311 b 1021 426 964 311 1021 354 b 871 540 1021 497 964 540 m 869 286 b 694 160 761 286 694 238 b 871 25 694 75 760 25 b 1046 158 979 25 1046 74 b 869 286 1046 238 981 286 "},"⅞":{"ha":1089,"x_min":0,"x_max":0,"o":"m 151 407 l 408 944 l 83 944 l 83 856 l 56 856 l 56 971 l 438 971 l 438 942 l 183 407 m 846 971 l 882 971 l 135 0 l 99 0 m 817 564 b 993 428 925 564 993 514 b 889 301 993 364 954 322 b 1019 157 971 282 1019 232 b 817 0 1019 57 943 0 b 613 157 689 0 613 57 b 744 301 613 232 663 282 b 639 429 678 322 639 364 b 817 564 639 514 707 564 m 817 540 b 665 426 722 540 665 497 b 817 311 665 354 722 311 b 967 426 910 311 967 354 b 817 540 967 497 910 540 m 815 286 b 640 160 707 286 640 238 b 817 25 640 75 706 25 b 992 158 925 25 992 74 b 815 286 992 238 926 286 "},"¹":{"ha":335,"x_min":0,"x_max":0,"o":"m 161 944 l 38 944 l 38 971 l 190 971 l 190 407 l 161 407 "},"²":{"ha":519,"x_min":0,"x_max":0,"o":"m 240 971 b 407 838 343 971 407 919 b 306 658 407 788 369 721 l 96 433 l 449 433 l 449 407 l 63 407 l 63 436 l 286 675 b 378 836 343 732 378 793 b 238 944 378 903 325 944 b 78 875 182 944 121 918 l 61 896 b 240 971 110 943 176 971 "},"³":{"ha":469,"x_min":0,"x_max":0,"o":"m 206 726 b 396 578 319 725 396 671 b 200 407 396 476 321 407 b 31 456 139 407 75 426 l 46 479 b 199 432 86 450 143 432 b 367 575 304 432 367 492 b 197 703 367 658 303 703 l 135 703 l 135 724 l 332 944 l 54 944 l 54 969 l 368 969 l 368 949 l 171 726 "},"*":{"ha":414,"x_min":0,"x_max":0,"o":"m 219 635 l 194 635 l 194 797 l 54 715 l 42 739 l 181 819 l 42 900 l 54 924 l 194 842 l 194 1004 l 219 1004 l 219 842 l 360 924 l 372 900 l 232 819 l 372 739 l 360 715 l 219 797 "},"\\":{"ha":408,"x_min":0,"x_max":0,"o":"m 403 -181 l 374 -181 l -51 1147 l -22 1147 "},"•":{"ha":272,"x_min":0,"x_max":0,"o":"m 136 429 b 190 375 165 429 190 404 b 136 321 190 346 165 321 b 82 375 107 321 82 346 b 136 429 82 404 107 429 "},":":{"ha":236,"x_min":0,"x_max":0,"o":"m 118 475 b 154 439 138 475 154 458 b 118 403 154 419 138 403 b 82 439 99 403 82 419 b 118 475 82 458 99 475 m 118 63 b 154 26 138 63 154 46 b 118 -10 154 7 138 -10 b 82 26 99 -10 82 7 b 118 63 82 46 99 63 "},",":{"ha":236,"x_min":0,"x_max":0,"o":"m 121 63 b 157 25 140 63 157 46 b 143 -10 157 13 151 3 l 100 -75 l 72 -75 l 110 -10 b 85 26 94 -4 85 10 b 121 63 85 47 101 63 "},"…":{"ha":681,"x_min":0,"x_max":0,"o":"m 118 63 b 154 26 138 63 154 46 b 118 -10 154 7 138 -10 b 82 26 99 -10 82 7 b 118 63 82 46 99 63 m 340 63 b 376 26 360 63 376 46 b 340 -10 376 7 360 -10 b 304 26 321 -10 304 7 b 340 63 304 46 321 63 m 563 63 b 599 26 582 63 599 46 b 563 -10 599 7 582 -10 b 526 26 543 -10 526 7 b 563 63 526 46 543 63 "},"!":{"ha":267,"x_min":0,"x_max":0,"o":"m 119 261 l 119 947 l 147 947 l 147 261 m 133 63 b 169 26 153 63 169 46 b 133 -10 169 7 153 -10 b 97 26 114 -10 97 7 b 133 63 97 46 114 63 "},"¡":{"ha":267,"x_min":0,"x_max":0,"o":"m 133 654 b 97 690 114 654 97 671 b 133 726 97 710 114 726 b 169 690 153 726 169 710 b 133 654 169 671 153 654 m 147 456 l 147 -231 l 119 -231 l 119 456 "},"#":{"ha":982,"x_min":0,"x_max":0,"o":"m 661 289 l 625 0 l 597 0 l 633 289 l 300 289 l 264 0 l 236 0 l 272 289 l 65 289 l 64 317 l 275 317 l 317 650 l 110 650 l 108 678 l 319 678 l 356 971 l 383 971 l 347 678 l 681 678 l 717 971 l 744 971 l 708 678 l 914 678 l 915 650 l 706 650 l 664 317 l 869 317 l 871 289 m 678 650 l 344 650 l 303 317 l 636 317 "},".":{"ha":236,"x_min":0,"x_max":0,"o":"m 118 63 b 154 26 138 63 154 46 b 118 -10 154 7 138 -10 b 82 26 99 -10 82 7 b 118 63 82 46 99 63 "},"·":{"ha":236,"x_min":0,"x_max":0,"o":"m 118 406 b 154 369 138 406 154 389 b 118 333 154 350 138 333 b 82 369 99 333 82 350 b 118 406 82 389 99 406 "},"?":{"ha":549,"x_min":0,"x_max":0,"o":"m 11 744 b 253 943 21 874 117 943 b 493 733 388 943 493 876 b 265 286 493 494 265 515 l 238 286 b 465 735 238 528 465 507 b 251 915 465 857 375 915 b 39 742 128 915 47 857 m 247 63 b 283 26 267 63 283 46 b 247 -10 283 7 267 -10 b 211 26 228 -10 211 7 b 247 63 211 46 228 63 "},"¿":{"ha":549,"x_min":0,"x_max":0,"o":"m 301 654 b 265 690 282 654 265 671 b 301 726 265 710 282 726 b 338 690 321 726 338 710 b 301 654 338 671 321 654 m 538 -28 b 296 -226 528 -157 432 -226 b 56 -17 161 -226 56 -160 b 283 431 56 222 283 201 l 311 431 b 83 -18 311 189 83 210 b 297 -199 83 -140 174 -199 b 510 -25 421 -199 501 -140 "},"\"":{"ha":328,"x_min":0,"x_max":0,"o":"m 83 707 l 83 971 l 111 971 l 111 707 m 217 707 l 217 971 l 244 971 l 244 707 "},"'":{"ha":194,"x_min":0,"x_max":0,"o":"m 83 707 l 83 971 l 111 971 l 111 707 "},";":{"ha":236,"x_min":0,"x_max":0,"o":"m 118 403 b 82 439 99 403 82 419 b 118 475 82 458 99 475 b 154 439 138 475 154 458 b 118 403 154 419 138 403 m 121 63 b 157 25 140 63 157 46 b 143 -10 157 13 151 3 l 100 -75 l 72 -75 l 110 -10 b 85 26 94 -4 85 10 b 121 63 85 47 101 63 "},"/":{"ha":408,"x_min":0,"x_max":0,"o":"m 6 -181 l 431 1147 l 460 1147 l 35 -181 "},"_":{"ha":746,"x_min":0,"x_max":0,"o":"m 0 -283 l 0 -256 l 746 -256 l 746 -283 "},"{":{"ha":394,"x_min":0,"x_max":0,"o":"m 206 542 b 150 428 206 476 190 442 b 206 314 190 414 206 379 l 206 -33 b 356 -147 206 -111 253 -147 l 356 -175 l 349 -175 b 178 -33 232 -175 178 -131 l 178 314 b 101 414 178 382 153 414 l 75 414 l 75 442 l 101 442 b 178 542 153 442 178 474 l 178 889 b 349 1031 178 986 232 1031 l 356 1031 l 356 1003 b 206 889 253 1003 206 967 "},"}":{"ha":394,"x_min":0,"x_max":0,"o":"m 319 414 l 293 414 b 217 314 242 414 217 382 l 217 -33 b 46 -175 217 -131 163 -175 l 39 -175 l 39 -147 b 189 -33 142 -147 189 -111 l 189 314 b 244 428 189 379 204 414 b 189 542 204 442 189 476 l 189 889 b 39 1003 189 967 142 1003 l 39 1031 l 46 1031 b 217 889 163 1031 217 986 l 217 542 b 293 442 217 474 242 442 l 319 442 "},"[":{"ha":440,"x_min":0,"x_max":0,"o":"m 206 1003 l 206 -144 l 385 -144 l 385 -172 l 178 -172 l 178 1031 l 385 1031 l 385 1003 "},"]":{"ha":440,"x_min":0,"x_max":0,"o":"m 263 -172 l 56 -172 l 56 -144 l 235 -144 l 235 1003 l 56 1003 l 56 1031 l 263 1031 "},"(":{"ha":383,"x_min":0,"x_max":0,"o":"m 328 1031 b 171 429 226 879 171 667 b 328 -172 171 192 226 -21 l 300 -172 b 143 429 199 -21 143 192 b 300 1031 143 667 199 879 "},")":{"ha":383,"x_min":0,"x_max":0,"o":"m 83 1031 b 240 429 185 879 240 667 b 83 -172 240 192 185 -21 l 56 -172 b 213 429 157 -21 213 192 b 56 1031 213 667 157 879 "},"—":{"ha":1056,"x_min":0,"x_max":0,"o":"m 0 333 l 0 361 l 1056 361 l 1056 333 "},"–":{"ha":556,"x_min":0,"x_max":0,"o":"m 0 333 l 0 361 l 556 361 l 556 333 "},"-":{"ha":496,"x_min":0,"x_max":0,"o":"m 97 403 l 97 431 l 399 431 l 399 403 "},"­":{"ha":496,"x_min":0,"x_max":0,"o":"m 97 403 l 97 431 l 399 431 l 399 403 "},"«":{"ha":529,"x_min":0,"x_max":0,"o":"m 265 131 l 232 131 l 81 343 l 232 560 l 265 560 l 115 343 m 422 131 l 389 131 l 238 343 l 389 560 l 422 560 l 272 343 "},"»":{"ha":529,"x_min":0,"x_max":0,"o":"m 107 560 l 140 560 l 292 347 l 140 131 l 107 131 l 257 347 m 264 560 l 297 560 l 449 347 l 297 131 l 264 131 l 414 347 "},"‹":{"ha":372,"x_min":0,"x_max":0,"o":"m 265 131 l 232 131 l 81 343 l 232 560 l 265 560 l 115 343 "},"›":{"ha":372,"x_min":0,"x_max":0,"o":"m 107 560 l 140 560 l 292 347 l 140 131 l 107 131 l 257 347 "},"„":{"ha":361,"x_min":0,"x_max":0,"o":"m 121 63 b 157 25 140 63 157 46 b 143 -10 157 13 151 3 l 100 -75 l 72 -75 l 110 -10 b 85 26 94 -4 85 10 b 121 63 85 47 101 63 m 246 63 b 282 25 265 63 282 46 b 268 -10 282 13 276 3 l 225 -75 l 197 -75 l 235 -10 b 210 26 219 -4 210 10 b 246 63 210 47 226 63 "},"“":{"ha":361,"x_min":0,"x_max":0,"o":"m 119 919 b 144 883 135 914 144 900 b 108 847 144 863 128 847 b 72 885 89 847 72 864 b 86 919 72 897 78 907 l 129 985 l 157 985 m 244 919 b 269 883 260 914 269 900 b 233 847 269 863 253 847 b 197 885 214 847 197 864 b 211 919 197 897 203 907 l 254 985 l 282 985 "},"”":{"ha":361,"x_min":0,"x_max":0,"o":"m 121 971 b 157 933 140 971 157 954 b 143 899 157 921 151 911 l 100 833 l 72 833 l 110 899 b 85 935 94 904 85 918 b 121 971 85 956 101 971 m 246 971 b 282 933 265 971 282 954 b 268 899 282 921 276 911 l 225 833 l 197 833 l 235 899 b 210 935 219 904 210 918 b 246 971 210 956 226 971 "},"‘":{"ha":236,"x_min":0,"x_max":0,"o":"m 119 919 b 144 883 135 914 144 900 b 108 847 144 863 128 847 b 72 885 89 847 72 864 b 86 919 72 897 78 907 l 129 985 l 157 985 "},"’":{"ha":236,"x_min":0,"x_max":0,"o":"m 121 971 b 157 933 140 971 157 954 b 143 899 157 921 151 911 l 100 833 l 72 833 l 110 899 b 85 935 94 904 85 918 b 121 971 85 956 101 971 "},"‚":{"ha":236,"x_min":0,"x_max":0,"o":"m 121 63 b 157 25 140 63 157 46 b 143 -10 157 13 151 3 l 100 -75 l 72 -75 l 110 -10 b 85 26 94 -4 85 10 b 121 63 85 47 101 63 "}," ":{"ha":417,"x_min":0,"x_max":0,"o":""}," ":{"ha":417,"x_min":0,"x_max":0,"o":""},"ƒ":{"ha":431,"x_min":0,"x_max":0,"o":"m 394 1017 b 224 833 306 1018 238 946 l 200 642 l 435 642 l 432 614 l 197 614 l 115 -58 b -58 -269 99 -187 49 -271 b -179 -218 -100 -268 -147 -247 l -160 -196 b -56 -242 -133 -222 -92 -240 b 88 -58 33 -243 74 -171 l 169 614 l 81 614 l 83 642 l 172 642 l 196 833 b 397 1044 213 963 292 1046 b 533 993 444 1043 497 1022 l 514 971 b 394 1017 482 997 435 1015 "},"€":{"ha":1118,"x_min":0,"x_max":0,"o":"m 1042 126 b 707 0 953 49 835 0 b 240 317 494 0 311 132 l 72 317 l 72 344 l 231 344 b 208 486 217 389 208 438 b 221 594 208 524 213 560 l 72 594 l 72 622 l 229 622 b 707 971 289 824 482 971 b 1040 846 835 971 951 924 l 1022 828 b 707 944 939 901 828 944 b 256 622 496 944 317 808 l 683 622 l 683 594 l 249 594 b 235 486 239 560 235 524 b 258 344 235 436 243 389 l 683 344 l 683 317 l 268 317 b 707 26 338 147 508 26 b 1022 144 828 26 939 71 "},"¢":{"ha":774,"x_min":0,"x_max":0,"o":"m 681 113 b 422 0 618 42 528 0 l 422 -165 l 394 -165 l 394 1 b 72 360 208 14 72 160 b 394 717 72 558 208 704 l 394 908 l 422 908 l 422 718 b 665 622 518 718 603 682 l 647 603 b 422 690 588 657 513 690 l 422 28 b 663 132 521 28 604 65 m 99 360 b 394 29 99 174 222 40 l 394 689 b 99 360 222 678 99 544 "},"¤":{"ha":1008,"x_min":0,"x_max":0,"o":"m 897 439 b 786 179 897 339 856 246 l 936 28 l 917 8 l 765 160 b 504 64 696 100 604 64 b 244 161 404 64 314 101 l 92 8 l 72 28 l 224 181 b 115 439 157 247 115 339 b 224 701 115 540 157 633 l 72 854 l 92 874 l 244 721 b 504 818 314 781 404 818 b 765 722 604 818 696 782 l 917 874 l 936 854 l 786 703 b 897 439 854 635 897 542 m 143 439 b 504 92 143 249 306 92 b 869 439 706 92 869 249 b 504 790 869 632 706 790 b 143 439 306 790 143 632 "},"$":{"ha":824,"x_min":0,"x_max":0,"o":"m 417 513 b 718 236 567 468 719 422 b 417 0 718 100 601 8 l 417 -165 l 389 -165 l 389 0 b 57 136 267 0 138 54 l 76 156 b 389 28 150 78 272 28 l 389 492 b 110 756 247 535 110 585 b 389 969 110 879 219 961 l 389 1117 l 417 1117 l 417 971 l 419 971 b 678 900 510 971 611 943 l 664 878 b 419 943 601 918 506 943 l 417 943 m 138 756 b 389 521 138 608 258 561 l 389 942 b 138 756 236 933 138 863 m 690 236 b 417 483 692 397 557 442 l 417 28 b 690 236 585 36 690 117 "},"£":{"ha":739,"x_min":0,"x_max":0,"o":"m 669 0 l 72 0 l 72 28 l 203 28 l 203 458 l 72 458 l 72 486 l 203 486 l 203 697 b 442 971 203 874 288 971 b 683 835 536 971 622 922 l 664 815 b 442 943 607 899 529 943 b 231 697 306 943 231 857 l 231 486 l 496 486 l 496 458 l 231 458 l 231 28 l 669 28 "},"¥":{"ha":842,"x_min":0,"x_max":0,"o":"m 726 401 l 726 374 l 438 374 l 438 207 l 726 207 l 726 179 l 438 179 l 438 0 l 410 0 l 410 179 l 115 179 l 115 207 l 410 207 l 410 374 l 115 374 l 115 401 l 390 401 l 14 971 l 47 971 l 424 401 l 794 971 l 828 971 l 456 401 "},"≈":{"ha":667,"x_min":0,"x_max":0,"o":"m 213 663 b 456 565 294 663 382 565 b 525 649 500 565 525 596 l 553 649 b 456 538 553 579 517 538 b 213 635 363 538 288 635 b 143 551 168 635 143 604 l 115 551 b 213 663 115 621 151 663 m 213 383 b 456 286 294 383 382 286 b 525 369 500 286 525 317 l 553 369 b 456 258 553 300 517 258 b 213 356 363 258 288 356 b 143 272 168 356 143 325 l 115 272 b 213 383 115 342 151 383 "},"~":{"ha":667,"x_min":0,"x_max":0,"o":"m 213 500 b 456 403 294 500 382 403 b 525 486 500 403 525 433 l 553 486 b 456 375 553 417 517 375 b 213 472 363 375 288 472 b 143 389 168 472 143 442 l 115 389 b 213 500 115 458 151 500 "},"∙":{"ha":272,"x_min":0,"x_max":0,"o":"m 136 429 b 190 375 165 429 190 404 b 136 321 190 346 165 321 b 82 375 107 321 82 346 b 136 429 82 404 107 429 "},"÷":{"ha":667,"x_min":0,"x_max":0,"o":"m 340 724 b 376 688 360 724 376 707 b 340 651 376 668 360 651 b 304 688 321 651 304 668 b 340 724 304 707 321 724 m 56 431 l 56 458 l 611 458 l 611 431 m 340 238 b 376 201 360 238 376 221 b 340 165 376 182 360 165 b 304 201 321 165 304 182 b 340 238 304 221 321 238 "},"∕":{"ha":408,"x_min":0,"x_max":0,"o":"m 6 -181 l 431 1147 l 460 1147 l 35 -181 "},"=":{"ha":667,"x_min":0,"x_max":0,"o":"m 56 569 l 56 597 l 611 597 l 611 569 m 56 292 l 56 319 l 611 319 l 611 292 "},">":{"ha":667,"x_min":0,"x_max":0,"o":"m 585 456 l 56 701 l 56 732 l 611 474 l 611 438 l 56 179 l 56 210 "},"≥":{"ha":667,"x_min":0,"x_max":0,"o":"m 585 524 l 56 769 l 56 800 l 611 542 l 611 506 l 56 247 l 56 278 m 56 76 l 56 104 l 611 104 l 611 76 "},"∞":{"ha":1264,"x_min":0,"x_max":0,"o":"m 947 671 b 1192 426 1086 671 1192 565 b 947 182 1192 288 1086 182 b 632 397 771 182 699 288 b 317 181 565 286 493 181 b 72 425 178 181 72 286 b 317 669 72 564 178 669 b 632 454 493 669 565 564 b 947 671 699 565 771 671 m 947 210 b 1164 426 1072 210 1164 301 b 947 643 1164 551 1072 643 b 649 426 782 643 714 536 b 947 210 714 315 782 210 m 317 208 b 615 425 482 208 549 315 b 317 642 549 536 482 642 b 100 425 192 642 100 550 b 317 208 100 300 192 208 "},"∫":{"ha":368,"x_min":0,"x_max":0,"o":"m 342 1101 b 283 1117 324 1113 307 1117 b 188 915 214 1117 188 1061 b 210 78 188 682 210 324 b 86 -151 210 -87 175 -151 b 14 -133 61 -151 42 -146 l 26 -108 b 86 -124 44 -119 61 -124 b 182 78 156 -124 182 -68 b 160 915 182 324 160 682 b 283 1144 160 1081 194 1144 b 354 1126 307 1144 326 1139 "},"<":{"ha":667,"x_min":0,"x_max":0,"o":"m 82 456 l 611 210 l 611 179 l 56 438 l 56 474 l 611 732 l 611 701 "},"≤":{"ha":667,"x_min":0,"x_max":0,"o":"m 82 524 l 611 278 l 611 247 l 56 506 l 56 542 l 611 800 l 611 769 m 56 76 l 56 104 l 611 104 l 611 76 "},"¬":{"ha":742,"x_min":0,"x_max":0,"o":"m 611 222 l 583 222 l 583 472 l 56 472 l 56 500 l 611 500 "},"−":{"ha":667,"x_min":0,"x_max":0,"o":"m 56 431 l 56 458 l 611 458 l 611 431 "},"×":{"ha":667,"x_min":0,"x_max":0,"o":"m 539 258 l 519 239 l 333 425 l 147 239 l 128 258 l 314 444 l 128 631 l 147 650 l 333 464 l 519 650 l 539 631 l 353 444 "},"≠":{"ha":667,"x_min":0,"x_max":0,"o":"m 297 319 l 611 319 l 611 292 l 289 292 l 217 68 l 190 68 l 263 292 l 56 292 l 56 319 l 271 319 l 351 569 l 56 569 l 56 597 l 360 597 l 429 814 l 456 814 l 386 597 l 611 597 l 611 569 l 378 569 "},"∂":{"ha":815,"x_min":0,"x_max":0,"o":"m 363 971 b 732 460 592 971 732 767 b 376 0 732 160 599 0 b 69 308 190 0 69 117 b 371 608 69 496 185 608 b 699 346 547 608 668 508 b 360 943 731 717 601 943 b 125 871 283 943 194 915 l 111 896 b 363 971 190 942 283 971 m 371 581 b 97 311 206 581 97 478 b 383 28 97 136 215 28 b 675 300 589 28 675 190 b 371 581 675 444 561 581 "},"%":{"ha":1239,"x_min":0,"x_max":0,"o":"m 301 971 b 536 689 451 971 536 869 b 301 407 536 507 451 407 b 69 689 153 407 69 507 b 301 971 69 869 153 971 m 964 971 l 1000 971 l 253 0 l 217 0 m 301 946 b 99 689 171 946 99 856 b 301 432 99 522 171 432 b 506 689 433 432 506 522 b 301 946 506 856 433 946 m 935 564 b 1169 282 1085 564 1169 463 b 935 0 1169 100 1085 0 b 703 282 786 0 703 100 b 935 564 703 463 786 564 m 935 539 b 732 282 804 539 732 449 b 935 25 732 115 804 25 b 1139 282 1067 25 1139 115 b 935 539 1139 449 1067 539 "},"‰":{"ha":1844,"x_min":0,"x_max":0,"o":"m 301 971 b 536 689 451 971 536 869 b 301 407 536 507 451 407 b 69 689 153 407 69 507 b 301 971 69 869 153 971 m 964 971 l 1000 971 l 253 0 l 217 0 m 301 946 b 99 689 171 946 99 856 b 301 432 99 522 171 432 b 506 689 433 432 506 522 b 301 946 506 856 433 946 m 935 564 b 1169 282 1085 564 1169 463 b 935 0 1169 100 1085 0 b 703 282 786 0 703 100 b 935 564 703 463 786 564 m 1540 564 b 1775 282 1690 564 1775 463 b 1540 0 1775 100 1690 0 b 1308 282 1392 0 1308 100 b 1540 564 1308 463 1392 564 m 935 539 b 732 282 804 539 732 449 b 935 25 732 115 804 25 b 1139 282 1067 25 1139 115 b 935 539 1139 449 1067 539 m 1540 539 b 1338 282 1410 539 1338 449 b 1540 25 1338 115 1410 25 b 1744 282 1672 25 1744 115 b 1540 539 1744 449 1672 539 "},"+":{"ha":667,"x_min":0,"x_max":0,"o":"m 347 431 l 347 167 l 319 167 l 319 431 l 56 431 l 56 458 l 319 458 l 319 722 l 347 722 l 347 458 l 611 458 l 611 431 "},"±":{"ha":667,"x_min":0,"x_max":0,"o":"m 611 499 l 347 499 l 347 235 l 319 235 l 319 499 l 56 499 l 56 526 l 319 526 l 319 790 l 347 790 l 347 526 l 611 526 m 611 104 l 611 76 l 56 76 l 56 104 "},"∏":{"ha":1060,"x_min":0,"x_max":0,"o":"m 854 -269 l 854 1003 l 206 1003 l 206 -269 l 178 -269 l 178 1031 l 882 1031 l 882 -269 "},"√":{"ha":914,"x_min":0,"x_max":0,"o":"m 457 -167 l 847 1051 l 878 1051 l 472 -203 l 442 -203 l 200 501 l 35 501 l 35 528 l 219 528 "},"∑":{"ha":838,"x_min":0,"x_max":0,"o":"m 92 1003 l 569 435 l 88 -164 l 838 -164 l 838 -192 l 56 -192 l 56 -158 l 533 435 l 60 997 l 60 1031 l 824 1031 l 824 1003 "},"◊":{"ha":693,"x_min":0,"x_max":0,"o":"m 346 47 l 72 458 l 347 865 l 621 458 m 346 97 l 588 458 l 347 818 l 106 458 "},"&":{"ha":869,"x_min":0,"x_max":0,"o":"m 676 201 b 860 18 733 144 794 83 l 842 0 b 660 181 778 65 717 125 b 347 0 567 65 460 0 b 83 254 203 0 83 108 b 322 539 83 400 200 475 b 210 781 250 631 210 708 b 422 971 210 886 297 971 b 615 793 539 971 615 897 b 364 529 615 663 489 597 b 656 222 435 442 535 342 b 775 432 699 281 739 350 l 801 415 b 676 201 764 333 722 261 m 238 781 b 346 551 238 714 276 639 b 588 794 468 615 588 675 b 422 943 588 883 524 943 b 238 781 311 943 238 871 m 347 28 b 640 201 451 28 551 89 b 340 517 517 324 414 426 b 111 254 222 453 111 383 b 347 28 111 122 217 28 "},"^":{"ha":664,"x_min":0,"x_max":0,"o":"m 332 707 l 86 178 l 56 178 l 314 733 l 350 733 l 608 178 l 578 178 "},"@":{"ha":1397,"x_min":0,"x_max":0,"o":"m 704 1001 b 1328 360 1065 1001 1328 731 b 1118 -22 1328 128 1246 -22 b 989 133 1047 -22 989 39 l 989 222 b 665 8 938 93 817 8 b 314 369 463 8 314 161 b 665 732 314 579 463 732 b 989 518 817 732 938 647 l 989 729 l 1017 729 l 1017 133 b 1121 6 1017 56 1065 6 b 1300 360 1229 6 1300 144 b 704 974 1300 715 1049 974 b 97 364 353 974 97 717 b 686 -219 97 26 346 -219 b 935 -158 764 -219 869 -193 l 946 -183 b 686 -247 875 -221 765 -247 b 69 364 329 -247 69 10 b 704 1001 69 733 338 1001 m 665 704 b 342 369 478 704 342 563 b 665 36 342 176 478 36 b 989 369 853 36 989 176 b 665 704 989 563 853 704 "},"|":{"ha":306,"x_min":0,"x_max":0,"o":"m 139 -179 l 139 1144 l 167 1144 l 167 -179 "},"¦":{"ha":306,"x_min":0,"x_max":0,"o":"m 139 654 l 139 1144 l 167 1144 l 167 654 m 139 -179 l 139 311 l 167 311 l 167 -179 "},"©":{"ha":1079,"x_min":0,"x_max":0,"o":"m 540 957 b 1010 486 804 957 1010 744 b 538 13 1010 229 803 13 b 69 483 274 13 69 226 b 540 957 69 740 275 957 m 540 929 b 97 483 289 929 97 726 b 538 40 97 240 288 40 b 982 486 789 40 982 243 b 540 929 982 731 790 929 m 546 738 b 724 669 613 738 676 711 l 706 650 b 546 710 663 688 607 710 b 313 485 417 710 313 608 b 546 258 313 360 417 258 b 706 318 606 258 663 281 l 724 300 b 544 231 676 257 613 231 b 285 485 401 231 285 344 b 546 738 285 624 401 738 "},"†":{"ha":667,"x_min":0,"x_max":0,"o":"m 653 640 l 653 613 l 347 613 l 347 -269 l 319 -269 l 319 613 l 14 613 l 14 640 l 319 640 l 319 971 l 347 971 l 347 640 "},"‡":{"ha":667,"x_min":0,"x_max":0,"o":"m 347 140 l 653 140 l 653 113 l 347 113 l 347 -269 l 319 -269 l 319 113 l 14 113 l 14 140 l 319 140 l 319 613 l 14 613 l 14 640 l 319 640 l 319 971 l 347 971 l 347 640 l 653 640 l 653 613 l 347 613 "},"°":{"ha":417,"x_min":0,"x_max":0,"o":"m 261 1106 b 418 954 346 1106 418 1035 b 261 804 418 874 346 804 b 106 954 178 804 106 874 b 261 1106 106 1035 178 1106 m 261 1078 b 133 954 192 1078 133 1021 b 261 832 133 888 192 832 b 390 954 332 832 390 888 b 261 1078 390 1021 332 1078 "},"℮":{"ha":1124,"x_min":0,"x_max":0,"o":"m 274 433 b 267 428 269 433 267 432 l 267 200 b 278 174 267 189 272 181 b 564 50 349 97 451 50 b 863 188 683 50 792 104 l 931 188 b 563 25 847 90 711 25 b 97 443 306 25 97 213 b 563 863 97 675 306 863 b 1028 443 819 863 1028 675 l 1028 433 m 858 692 b 846 719 858 703 853 713 b 564 838 774 792 674 838 b 279 715 451 838 351 790 b 267 688 272 708 267 699 l 267 463 b 274 456 267 458 269 456 l 851 456 b 858 463 856 456 858 458 "},"ℓ":{"ha":642,"x_min":0,"x_max":0,"o":"m 453 971 b 579 831 517 971 579 929 b 210 301 579 694 463 501 b 322 25 179 126 196 25 b 565 164 414 25 489 75 l 585 149 b 322 0 506 54 422 0 b 179 278 179 0 156 113 l 90 207 l 75 228 l 186 315 l 263 764 b 453 971 292 903 368 971 m 453 946 b 289 758 382 946 314 888 l 217 339 b 553 831 443 518 553 706 b 453 946 553 914 506 946 "},"¶":{"ha":774,"x_min":0,"x_max":0,"o":"m 568 -156 l 568 1003 l 315 1003 l 315 -156 l 288 -156 l 288 582 b 235 579 268 581 251 579 b 10 800 56 579 10 714 b 282 1031 10 917 86 1031 l 596 1031 l 596 -156 "},"®":{"ha":1079,"x_min":0,"x_max":0,"o":"m 540 957 b 1010 486 804 957 1010 744 b 538 13 1010 229 803 13 b 69 483 274 13 69 226 b 540 957 69 740 275 957 m 538 40 b 982 486 789 40 982 243 b 540 929 982 731 790 929 b 97 483 289 929 97 726 b 538 40 97 240 288 40 m 746 585 b 617 417 746 496 700 438 l 749 233 l 714 233 l 588 411 b 544 408 574 410 560 408 l 390 408 l 390 233 l 363 233 l 363 754 l 544 754 b 746 585 674 754 746 693 m 544 436 b 718 585 654 436 718 490 b 544 726 718 678 654 726 l 390 726 l 390 436 "},"§":{"ha":596,"x_min":0,"x_max":0,"o":"m 313 964 b 506 910 385 964 450 946 l 489 889 b 313 936 444 919 383 936 b 110 794 192 936 110 886 b 544 436 110 582 544 675 b 375 253 544 325 450 261 b 542 74 490 215 542 154 b 299 -111 542 -42 438 -111 b 40 -10 190 -111 99 -69 l 60 10 b 296 -83 121 -50 204 -83 b 515 75 414 -83 515 -28 b 81 436 515 286 81 194 b 285 606 81 538 158 596 b 83 793 140 650 83 710 b 313 964 83 901 178 964 m 311 579 b 107 446 189 579 107 525 b 332 274 107 356 217 274 b 518 431 433 274 518 338 b 311 579 518 518 442 579 "},"™":{"ha":1190,"x_min":0,"x_max":0,"o":"m 224 943 l 224 389 l 196 389 l 196 943 l 0 943 l 0 971 l 419 971 l 419 943 m 1065 389 l 1064 944 l 818 453 l 804 453 l 558 944 l 558 389 l 531 389 l 531 971 l 575 971 l 813 497 l 1047 971 l 1093 971 l 1093 389 "},"´":{"ha":486,"x_min":0,"x_max":0,"o":"m 176 867 l 132 867 l 329 1026 l 356 1013 "},"˘":{"ha":486,"x_min":0,"x_max":0,"o":"m 389 1008 b 243 863 386 925 322 863 b 97 1008 164 863 100 925 l 125 1008 b 243 890 128 942 178 890 b 361 1008 308 890 358 942 "},"ˇ":{"ha":486,"x_min":0,"x_max":0,"o":"m 122 1019 l 243 886 l 364 1019 l 401 1019 l 264 867 l 222 867 l 85 1019 "},"¸":{"ha":486,"x_min":0,"x_max":0,"o":"m 247 -68 b 350 -164 304 -68 349 -108 b 233 -278 353 -229 304 -278 b 136 -250 200 -278 158 -267 l 147 -224 b 233 -250 168 -239 204 -250 b 322 -164 288 -250 325 -214 b 249 -93 321 -124 290 -93 l 208 -93 l 250 6 l 278 6 "},"ˆ":{"ha":486,"x_min":0,"x_max":0,"o":"m 364 867 l 243 1000 l 122 867 l 85 867 l 222 1019 l 264 1019 l 401 867 "},"¨":{"ha":486,"x_min":0,"x_max":0,"o":"m 139 961 b 175 925 158 961 175 944 b 139 889 175 906 158 889 b 103 925 119 889 103 906 b 139 961 103 944 119 961 m 347 961 b 383 925 367 961 383 944 b 347 889 383 906 367 889 b 311 925 328 889 311 906 b 347 961 311 944 328 961 "},"˙":{"ha":486,"x_min":0,"x_max":0,"o":"m 243 961 b 279 925 263 961 279 944 b 243 889 279 906 263 889 b 207 925 224 889 207 906 b 243 961 207 944 224 961 "},"`":{"ha":486,"x_min":0,"x_max":0,"o":"m 311 867 l 132 1013 l 158 1026 l 356 867 "},"˝":{"ha":486,"x_min":0,"x_max":0,"o":"m 114 867 l 76 867 l 221 1026 l 244 1011 m 279 867 l 242 867 l 386 1026 l 410 1011 "},"¯":{"ha":486,"x_min":0,"x_max":0,"o":"m 93 913 l 93 940 l 394 940 l 394 913 "},"˛":{"ha":486,"x_min":0,"x_max":0,"o":"m 258 0 b 175 -182 192 -92 175 -139 b 236 -249 175 -225 201 -249 b 319 -201 267 -249 294 -229 l 339 -221 b 236 -276 313 -251 274 -276 b 147 -182 186 -276 147 -239 b 231 0 147 -137 169 -86 "},"˚":{"ha":486,"x_min":0,"x_max":0,"o":"m 243 1078 b 400 926 328 1078 400 1007 b 243 776 400 846 328 776 b 88 926 158 776 88 846 b 243 1078 88 1007 158 1078 m 243 1050 b 115 926 174 1050 115 993 b 243 804 115 860 174 804 b 372 926 313 804 372 860 b 243 1050 372 993 313 1050 "},"˜":{"ha":486,"x_min":0,"x_max":0,"o":"m 157 1000 b 331 903 225 1000 271 903 b 400 986 375 903 400 933 l 428 986 b 331 875 428 917 392 875 b 157 972 251 875 218 972 b 88 889 113 972 88 942 l 60 889 b 157 1000 60 958 96 1000 "},"̦":{"ha":0,"x_min":0,"x_max":0,"o":"m 121 -90 b 157 -128 140 -90 157 -107 b 143 -162 157 -140 151 -150 l 100 -228 l 72 -228 l 110 -162 b 85 -126 94 -157 85 -143 b 121 -90 85 -106 101 -90 "},"ˉ":{"ha":486,"x_min":0,"x_max":0,"o":"m 93 913 l 93 940 l 394 940 l 394 913 "}}}
